<?xml version="1.0" standalone="no"?>
<!DOCTYPE svg PUBLIC "-//W3C//DTD SVG 20010904//EN"
 "http://www.w3.org/TR/2001/REC-SVG-20010904/DTD/svg10.dtd">
<svg version="1.0" xmlns="http://www.w3.org/2000/svg"
 width="1443.000000pt" height="1443.000000pt" viewBox="0 0 1443.000000 1443.000000"
 preserveAspectRatio="xMidYMid meet">
<metadata>
Created by potrace 1.14, written by Peter Selinger 2001-2017
</metadata>
<g transform="translate(0.000000,1443.000000) scale(0.100000,-0.100000)"
fill="#000000" stroke="none">
<path d="M6438 11895 c-2 -1 -44 -6 -94 -9 -50 -4 -106 -9 -125 -11 -19 -3
-56 -7 -84 -10 -81 -10 -297 -45 -335 -55 -19 -5 -51 -12 -70 -15 -48 -8 -206
-50 -310 -82 -47 -15 -87 -28 -90 -28 -9 -3 -43 -16 -175 -67 -376 -146 -756
-375 -1045 -633 -141 -126 -321 -318 -443 -475 -318 -407 -594 -976 -732
-1510 -40 -154 -86 -357 -101 -445 -2 -16 -9 -55 -14 -85 -5 -30 -12 -73 -15
-95 -3 -23 -7 -51 -10 -64 -2 -13 -7 -49 -10 -80 -3 -31 -7 -65 -9 -76 -10
-51 -31 -313 -41 -510 -5 -97 -5 -626 0 -700 2 -33 7 -107 10 -165 3 -58 8
-123 9 -146 7 -69 17 -167 22 -205 2 -20 7 -56 9 -80 3 -24 7 -55 10 -69 3
-14 7 -45 10 -70 5 -43 13 -93 22 -135 2 -11 6 -31 8 -45 8 -50 57 -274 76
-349 11 -42 26 -98 33 -126 22 -81 96 -308 112 -339 8 -16 14 -35 14 -43 0 -7
4 -21 9 -31 5 -9 13 -28 19 -42 96 -228 204 -449 284 -578 42 -69 147 -229
160 -247 5 -5 32 -41 60 -80 28 -38 54 -72 58 -75 3 -3 15 -17 26 -32 71 -92
275 -307 394 -413 340 -306 754 -549 1229 -721 208 -76 528 -157 741 -190 19
-2 58 -9 85 -14 28 -5 75 -12 105 -15 30 -4 66 -8 80 -10 130 -19 454 -38 650
-38 149 0 365 9 407 17 11 2 46 7 79 10 74 8 331 60 404 81 107 32 266 88 318
111 29 13 55 24 57 24 11 0 166 77 250 124 154 87 341 215 459 316 119 102
272 252 322 316 l24 32 643 0 c353 0 656 1 672 1 l30 1 -2 701 c-1 385 -4 703
-7 707 -10 10 -223 4 -243 -6 -18 -10 -124 -120 -167 -172 -123 -152 -268
-489 -301 -700 -16 -100 -28 -226 -29 -292 0 -21 -3 -39 -6 -39 -21 -6 -422
-4 -425 1 -3 4 20 45 51 91 71 108 172 298 223 421 77 187 151 454 166 603 4
33 8 62 10 66 3 4 17 226 17 269 0 29 -5 30 -157 30 -85 0 -155 -3 -156 -7 0
-5 -2 -42 -4 -83 -5 -100 -13 -184 -25 -245 -6 -27 -12 -67 -15 -87 -15 -114
-99 -362 -179 -528 -45 -95 -57 -117 -130 -240 -66 -113 -189 -282 -211 -289
-11 -4 -207 -7 -435 -7 l-414 1 -1 2528 c0 1772 3 2531 11 2538 9 7 61 21 234
63 30 8 94 24 141 36 l86 22 2 59 2 59 -1120 0 -1121 0 -1 -22 c-2 -37 0 -91
5 -95 2 -2 107 -30 232 -62 l229 -58 3 -2510 c2 -2223 0 -2512 -13 -2523 -8
-7 -15 -10 -15 -7 0 2 -33 -4 -72 -15 -40 -11 -83 -21 -94 -24 -12 -2 -66 -16
-120 -30 -55 -14 -110 -28 -124 -30 -13 -3 -26 -6 -27 -8 -6 -5 -6 -107 0
-112 3 -4 553 -6 1221 -6 669 0 1216 -2 1216 -5 0 -2 -17 -20 -37 -39 -21 -20
-56 -52 -78 -73 -122 -114 -346 -270 -518 -359 -185 -97 -399 -171 -597 -206
-144 -25 -170 -28 -335 -31 -254 -4 -457 25 -675 96 -52 18 -137 51 -189 75
-99 46 -264 141 -269 156 -2 4 -10 8 -17 8 -7 0 -15 4 -17 8 -1 4 -21 21 -43
37 -99 74 -276 247 -366 360 -53 66 -179 241 -179 249 0 2 -17 33 -38 67 -118
197 -242 514 -326 829 -50 189 -118 526 -141 700 -3 25 -8 56 -10 70 -6 33
-16 120 -30 245 -10 87 -16 152 -30 315 -3 40 -11 156 -20 315 -22 361 -22
1128 0 1540 9 169 17 291 30 433 3 31 8 80 10 107 6 71 14 144 20 190 2 22 7
63 10 90 3 28 8 61 10 75 3 14 7 43 10 65 70 510 209 1021 366 1353 27 57 49
106 49 108 0 9 129 219 188 304 126 185 253 324 437 479 56 47 198 134 288
176 190 88 371 127 599 127 81 0 160 -3 175 -6 15 -3 53 -8 83 -11 81 -9 242
-49 345 -85 294 -103 672 -381 910 -670 21 -25 41 -47 45 -50 13 -9 147 -195
205 -285 217 -337 351 -626 469 -1015 l26 -85 250 0 c137 0 250 2 251 5 0 3 1
542 2 1198 1 789 -1 1192 -8 1193 -5 0 -77 2 -159 3 l-150 1 -135 -96 c-160
-113 -332 -278 -410 -392 -8 -12 -18 -24 -21 -27 -4 -3 -34 -44 -67 -92 l-60
-88 -29 26 c-16 14 -46 39 -68 57 -21 18 -43 37 -50 42 -113 100 -314 231
-527 343 -318 167 -709 296 -993 328 -28 3 -62 8 -76 11 -25 5 -536 13 -542 8z"/>
</g>
</svg>
