<?xml version="1.0" encoding="UTF-8"?>
<svg version="1.1" xmlns="http://www.w3.org/2000/svg" width="1339" height="254">
<path d="M0 0 C12.54119104 6.30602261 22.44960108 15.66259387 27.33984375 29.10546875 C29.91793033 40.40938684 28.43071375 51.75647036 22.36328125 61.67578125 C20.83135243 63.83843289 20.83135243 63.83843289 21 66 C21.825 66.61875 22.65 67.2375 23.5 67.875 C29.46947483 72.63348351 35.02909195 80.34530468 36 88 C35.34 88 34.68 88 34 88 C34 88.66 34 89.32 34 90 C33.01 90 32.02 90 31 90 C30.63648438 89.21496094 30.27296875 88.42992188 29.8984375 87.62109375 C26.87093976 81.29439976 23.97488509 75.97488509 19 71 C17.515 70.505 17.515 70.505 16 70 C14.31301536 71.92156535 12.62868292 73.84528999 10.94921875 75.7734375 C9.73296839 77.16274152 8.50783635 78.54437966 7.26953125 79.9140625 C6.74746094 80.49929687 6.22539062 81.08453125 5.6875 81.6875 C5.21699219 82.20699219 4.74648437 82.72648437 4.26171875 83.26171875 C1.30257236 87.3385613 0.70088941 91.369844 0.375 96.3125 C0.30023438 97.38113281 0.22546875 98.44976562 0.1484375 99.55078125 C0.07496094 100.76314453 0.07496094 100.76314453 0 102 C12.54015543 102.76429841 24.2838916 100.30863475 34 92 C41.96579399 83.24299078 47.1276022 72.97637826 47 61 C46.309395 50.75847484 42.41687013 42.78192406 34.75 35.9375 C32.85111888 34.37349908 31.19857078 33.09928539 29 32 C28.375 28.9375 28.375 28.9375 28 26 C36.32096134 28.29712295 42.85051591 34.08858921 47.1953125 41.4921875 C54.23492485 54.71115281 56.75946706 69.4957351 52.5637207 84.10693359 C48.69332193 95.80715662 41.51437309 106.21586528 30.6015625 112.34765625 C20.06887036 117.22908666 8.02716655 117.5286933 -3 114 C-3.09796875 114.7115625 -3.1959375 115.423125 -3.296875 116.15625 C-5.01013256 123.08542503 -10.30751864 130.65573791 -16 135 C-18.8125 135.3125 -18.8125 135.3125 -21 135 C-21.33 134.01 -21.66 133.02 -22 132 C-21.154375 131.401875 -20.30875 130.80375 -19.4375 130.1875 C-14.1478919 125.80468186 -9.23814976 118.83394349 -8 112 C-10.41464681 110.84973914 -12.83153318 109.70467795 -15.25 108.5625 C-16.27287109 108.07426758 -16.27287109 108.07426758 -17.31640625 107.57617188 C-17.98027344 107.26357422 -18.64414063 106.95097656 -19.328125 106.62890625 C-19.9355957 106.34088135 -20.54306641 106.05285645 -21.16894531 105.75610352 C-28.50501926 102.72679405 -35.56009117 104.11049934 -43 106 C-39.25861376 118.1207121 -34.50165614 128.43140644 -23.09375 135.1171875 C-12.68366883 140.6024995 -1.01014749 141.869818 10.4375 138.875 C18.53358002 135.98833797 24.75475248 130.43868744 29 123 C30.14443373 120.13309652 31.14247627 117.27261204 32.04296875 114.3203125 C33 112 33 112 36 110 C36.99 110 37.98 110 39 110 C36.46124568 122.96100888 31.35265269 133.20227637 20.34375 140.84375 C6.63628788 149.35680542 -8.4705728 152.70867386 -24.37890625 149.26953125 C-30.06022616 147.33361556 -35.08263966 144.4096791 -40 141 C-40.99 140.34 -41.98 139.68 -43 139 C-43 138.34 -43 137.68 -43 137 C-43.66 137 -44.32 137 -45 137 C-51.73634555 127.84307346 -54.40238475 119.21043771 -55 108 C-55.63164062 107.99742188 -56.26328125 107.99484375 -56.9140625 107.9921875 C-65.61787969 107.6159418 -72.23250422 104.70798704 -80 101 C-80 99.02 -80 97.04 -80 95 C-79.28199219 95.28875 -78.56398437 95.5775 -77.82421875 95.875 C-75.16018833 96.93619054 -72.4947554 97.98573503 -69.8125 99 C-68.95269531 99.33 -68.09289062 99.66 -67.20703125 100 C-62.86879434 101.35272674 -58.46423041 102.17343315 -54 103 C-53.88343217 98.79190116 -53.81262389 94.58422004 -53.75 90.375 C-53.71648437 89.18519531 -53.68296875 87.99539062 -53.6484375 86.76953125 C-53.55747266 78.62817829 -54.22025461 75.04972721 -59.75 69.125 C-60.36875 68.568125 -60.36875 68.568125 -61 68 C-61.886875 68.5775 -62.77375 69.155 -63.6875 69.75 C-64.18636719 70.07484375 -64.68523437 70.3996875 -65.19921875 70.734375 C-73.87560176 76.83231013 -79.20713744 84.8647752 -81.5625 95.2578125 C-83.35796181 106.51151065 -81.25906278 117.16866843 -75.25 126.9375 C-70.13641663 133.92221914 -63.50000315 138.30775013 -55 140 C-51.63536153 140.29687987 -48.2942914 140.49693788 -44.91796875 140.59375 C-41.71023096 141.04034268 -40.2875168 141.7401771 -38 144 C-38 144.66 -38 145.32 -38 146 C-52.10767373 146.44188769 -62.39550934 145.82808916 -74 137 C-74.61746094 136.54753906 -75.23492187 136.09507812 -75.87109375 135.62890625 C-85.40632889 128.13238508 -92.82520413 115.52674423 -94.484375 103.484375 C-95.43715394 90.08942401 -93.80589491 79.22880324 -85.375 68.3125 C-80.21368358 62.65516096 -73.12484447 58.64121721 -66 56 C-66.25136719 54.45892578 -66.25136719 54.45892578 -66.5078125 52.88671875 C-67.76059256 44.60394986 -68.54999089 37.17642242 -66 29 C-65 28 -65 28 -62.4375 27.9375 C-61.2309375 27.9684375 -61.2309375 27.9684375 -60 28 C-60.16298584 28.71567139 -60.32597168 29.43134277 -60.49389648 30.16870117 C-60.99192071 32.95480197 -61.1141835 35.47462208 -61.09765625 38.30078125 C-61.09443359 39.27724609 -61.09121094 40.25371094 -61.08789062 41.25976562 C-61.07951172 42.26716797 -61.07113281 43.27457031 -61.0625 44.3125 C-61.05798828 45.33923828 -61.05347656 46.36597656 -61.04882812 47.42382812 C-61.03708184 49.94927882 -61.02065565 52.47460905 -61 55 C-57.62022297 54.27055172 -54.24739194 53.51280294 -50.875 52.75 C-49.92367187 52.54503906 -48.97234375 52.34007812 -47.9921875 52.12890625 C-40.85107175 50.49240056 -35.31571276 48.65932539 -31.125 42.25 C-30.42375 41.1775 -29.7225 40.105 -29 39 C-31.06651878 34.10889274 -34.39691764 32.34867172 -39 30 C-50.75068921 25.2567816 -60.9485353 25.00398802 -73 29 C-83.42346475 33.70939672 -90.54253385 40.55327889 -94.92578125 51.26171875 C-97.12952418 59.37209241 -96.16005343 68.32370355 -93 76 C-93.31435559 79.37932259 -93.57479454 80.57479454 -96 83 C-101.97990414 71.83751228 -103.89693223 61.81167378 -100.3125 49.375 C-95.42200049 34.99217678 -85.79189232 22.4099981 -72 15.49609375 C-60.56168529 10.67055473 -49.68972571 9.42420523 -38 14 C-30.69313908 17.08672673 -25.06136219 21.90961382 -20 28 C-20 28.66 -20 29.32 -20 30 C-18.57107422 29.25943359 -18.57107422 29.25943359 -17.11328125 28.50390625 C-15.84651829 27.85644963 -14.57958199 27.20933206 -13.3125 26.5625 C-12.37374023 26.07426758 -12.37374023 26.07426758 -11.41601562 25.57617188 C-6.40604822 23.03184288 -2.27369308 21.84281876 3.3125 21.9375 C5.1378125 21.9684375 5.1378125 21.9684375 7 22 C7.495 24.475 7.495 24.475 8 27 C6.87464844 27.14695312 6.87464844 27.14695312 5.7265625 27.296875 C-1.34231054 28.32960708 -7.50064424 30.03790423 -14 33 C-14 40.42363726 -9.5411267 47.20603853 -4.6015625 52.6015625 C-0.51465154 56.17013353 4.95247848 57.3198559 10 59 C13.4782822 44.44504533 14.46805257 33.46956419 7.2109375 19.9375 C1.52827502 10.84524003 -6.63550251 4.83253348 -17 2 C-27.74983191 0.97279384 -36.39374564 2.0109344 -45.25 8.3125 C-48 10 -48 10 -51.375 9.75 C-52.674375 9.37875 -52.674375 9.37875 -54 9 C-50.97832369 4.60758831 -47.68334748 2.44797298 -42.9375 0.25 C-42.31294922 -0.05292969 -41.68839844 -0.35585937 -41.04492188 -0.66796875 C-28.6008292 -6.64432062 -12.48117291 -5.58549727 0 0 Z M-25 42 C-26.18554319 43.72334598 -27.32304726 45.47985054 -28.4375 47.25 C-29.05496094 48.22453125 -29.67242187 49.1990625 -30.30859375 50.203125 C-31.99274253 52.84805779 -31.99274253 52.84805779 -32.97265625 55.234375 C-34.31726149 57.54525549 -35.54086837 58.0110494 -38 59 C-38.76957031 59.33 -39.53914063 59.66 -40.33203125 60 C-45.1752637 61.95254725 -49.9462566 63.68163216 -55 65 C-53.70493625 67.85530722 -52.31887623 69.84020569 -50.125 72.0625 C-42.77162011 80.56935125 -42.43212711 90.19464082 -43 101 C-42.41992188 100.80664062 -41.83984375 100.61328125 -41.2421875 100.4140625 C-39.61835557 99.87278519 -37.99328461 99.33521503 -36.3671875 98.80078125 C-34.55991809 98.18941124 -32.77395698 97.5146913 -31 96.8125 C-23.40020996 94.75422353 -17.57082143 96.17607326 -10.3828125 99.125 C-7.95370968 100.17235339 -7.95370968 100.17235339 -5 100 C-5.04640625 98.87722656 -5.0928125 97.75445312 -5.140625 96.59765625 C-5.5134425 83.90768563 -3.68826469 76.80352479 4.51171875 66.84765625 C6.05694495 65.06344048 6.05694495 65.06344048 7 63 C5.9378125 62.78085938 4.875625 62.56171875 3.78125 62.3359375 C-5.71371467 60.26000163 -13.14596771 58.47877139 -18.9921875 50.16796875 C-20.24986597 48.20063637 -21.47280704 46.21046633 -22.65234375 44.1953125 C-23.09707031 43.47085938 -23.54179687 42.74640625 -24 42 C-24.33 42 -24.66 42 -25 42 Z " fill="white" transform="translate(218,9)"/>
<path d="M0 0 C1.40119548 1.16325663 2.72646277 2.41704928 4.03125 3.6875 C3.37125 5.0075 2.71125 6.3275 2.03125 7.6875 C-1.96875 7.6875 -1.96875 7.6875 -5.09375 5.75 C-9.43545521 3.09986825 -13.93898988 2.64353357 -18.96875 2.6875 C-19.95875 3.0175 -20.94875 3.3475 -21.96875 3.6875 C-22.62875 5.9975 -23.28875 8.3075 -23.96875 10.6875 C0.12125 10.3575 24.21125 10.0275 49.03125 9.6875 C43.8652485 4.5214985 41.74207324 2.59959502 34.71875 2.5625 C32.8934375 2.624375 32.8934375 2.624375 31.03125 2.6875 C31.03125 4.6675 31.03125 6.6475 31.03125 8.6875 C28.15625 9.3125 28.15625 9.3125 25.03125 9.6875 C23.03125 7.6875 23.03125 7.6875 22.65625 4.3125 C23.03125 0.6875 23.03125 0.6875 24.84375 -1.6875 C29.22556798 -4.94256478 33.79226185 -4.87756806 39.03125 -4.3125 C46.05700676 -2.53734685 51.75893703 0.72977916 56.03125 6.6875 C56.71484375 8.90625 56.71484375 8.90625 57.03125 10.6875 C59.01125 10.6875 60.99125 10.6875 63.03125 10.6875 C63.03125 12.3375 63.03125 13.9875 63.03125 15.6875 C61.38125 15.6875 59.73125 15.6875 58.03125 15.6875 C58.03125 24.9275 58.03125 34.1675 58.03125 43.6875 C55.72125 43.6875 53.41125 43.6875 51.03125 43.6875 C51.03125 34.4475 51.03125 25.2075 51.03125 15.6875 C44.43125 15.6875 37.83125 15.6875 31.03125 15.6875 C31.36125 17.0075 31.69125 18.3275 32.03125 19.6875 C32.62292969 19.62949219 33.21460938 19.57148438 33.82421875 19.51171875 C38.14648471 19.26493358 40.38066874 19.2626306 44.09375 21.6875 C46.25384236 25.03215914 46.70797257 26.85647764 46.46484375 30.75390625 C45.78319607 33.79368646 44.22892713 35.55446044 42.03125 37.6875 C39.32245665 39.04189668 37.02191732 38.75251451 34.03125 38.6875 C33.70125 36.7075 33.37125 34.7275 33.03125 32.6875 C36.00125 32.1925 36.00125 32.1925 39.03125 31.6875 C38.70125 30.0375 38.37125 28.3875 38.03125 26.6875 C37.04125 26.3575 36.05125 26.0275 35.03125 25.6875 C33.41353865 26.71312035 33.41353865 26.71312035 32.03125 28.6875 C31.65480152 31.31689205 31.42991913 33.73822472 31.34375 36.375 C31.30958984 37.07689453 31.27542969 37.77878906 31.24023438 38.50195312 C31.15795053 40.22991387 31.0929176 41.95868072 31.03125 43.6875 C29.05125 43.6875 27.07125 43.6875 25.03125 43.6875 C24.70125 41.7075 24.37125 39.7275 24.03125 37.6875 C23.04125 38.1825 23.04125 38.1825 22.03125 38.6875 C18.1225705 38.94241388 15.32182502 38.92039019 12.03125 36.6875 C9.34791772 32.66250157 9.23485781 29.41607864 10.03125 24.6875 C12.70361732 20.80042026 14.22164278 19.86003924 18.84375 18.875 C19.895625 18.813125 20.9475 18.75125 22.03125 18.6875 C22.36125 20.6675 22.69125 22.6475 23.03125 24.6875 C22.226875 24.914375 21.4225 25.14125 20.59375 25.375 C19.748125 25.808125 18.9025 26.24125 18.03125 26.6875 C17.13738836 29.23525306 17.13738836 29.23525306 17.03125 31.6875 C19.44744823 31.93780977 19.44744823 31.93780977 22.03125 31.6875 C24.37895643 28.16594036 24.40794614 26.17978157 24.65625 22 C24.841875 18.8753125 24.841875 18.8753125 25.03125 15.6875 C18.43125 15.6875 11.83125 15.6875 5.03125 15.6875 C5.03125 24.9275 5.03125 34.1675 5.03125 43.6875 C2.72125 43.6875 0.41125 43.6875 -1.96875 43.6875 C-1.96875 34.4475 -1.96875 25.2075 -1.96875 15.6875 C-3.94875 15.6875 -5.92875 15.6875 -7.96875 15.6875 C-7.96875 21.9575 -7.96875 28.2275 -7.96875 34.6875 C-10.60875 34.6875 -13.24875 34.6875 -15.96875 34.6875 C-17.59375 31.9375 -17.59375 31.9375 -18.96875 28.6875 C-18.15625 26.3125 -18.15625 26.3125 -16.96875 24.6875 C-16.30875 24.6875 -15.64875 24.6875 -14.96875 24.6875 C-14.96875 21.7175 -14.96875 18.7475 -14.96875 15.6875 C-17.93875 15.6875 -20.90875 15.6875 -23.96875 15.6875 C-23.96875 24.9275 -23.96875 34.1675 -23.96875 43.6875 C-26.27875 43.6875 -28.58875 43.6875 -30.96875 43.6875 C-30.96875 34.4475 -30.96875 25.2075 -30.96875 15.6875 C-33.27875 15.6875 -35.58875 15.6875 -37.96875 15.6875 C-37.96875 24.9275 -37.96875 34.1675 -37.96875 43.6875 C-40.27875 43.6875 -42.58875 43.6875 -44.96875 43.6875 C-44.96875 34.4475 -44.96875 25.2075 -44.96875 15.6875 C-47.27875 15.6875 -49.58875 15.6875 -51.96875 15.6875 C-51.96875 24.9275 -51.96875 34.1675 -51.96875 43.6875 C-54.27875 43.6875 -56.58875 43.6875 -58.96875 43.6875 C-59.46375 41.7075 -59.46375 41.7075 -59.96875 39.6875 C-60.53722656 40.01105469 -61.10570312 40.33460938 -61.69140625 40.66796875 C-65.38779166 42.3227828 -68.99238934 42.16948311 -72.96875 41.6875 C-75.38744578 40.5285416 -77.09197096 39.56427904 -78.96875 37.6875 C-79.01190144 35.01211085 -79.01555441 32.36055179 -78.96875 29.6875 C-78.82170708 26.74034355 -78.82170708 26.74034355 -79.71875 24.25 C-79.96875 21.6875 -79.96875 21.6875 -78.34375 19.375 C-75.59974885 17.42531497 -74.25868102 17.32195211 -70.96875 17.6875 C-70.96875 17.0275 -70.96875 16.3675 -70.96875 15.6875 C-75.58875 15.6875 -80.20875 15.6875 -84.96875 15.6875 C-84.96875 24.9275 -84.96875 34.1675 -84.96875 43.6875 C-87.27875 43.6875 -89.58875 43.6875 -91.96875 43.6875 C-91.96875 34.4475 -91.96875 25.2075 -91.96875 15.6875 C-94.27875 15.6875 -96.58875 15.6875 -98.96875 15.6875 C-98.96875 24.9275 -98.96875 34.1675 -98.96875 43.6875 C-101.27875 43.6875 -103.58875 43.6875 -105.96875 43.6875 C-106.29875 41.0475 -106.62875 38.4075 -106.96875 35.6875 C-107.63261719 36.34878906 -108.29648437 37.01007813 -108.98046875 37.69140625 C-110.30498047 38.95791016 -110.30498047 38.95791016 -111.65625 40.25 C-112.52636719 41.09691406 -113.39648438 41.94382813 -114.29296875 42.81640625 C-116.96875 44.6875 -116.96875 44.6875 -119.71875 44.59375 C-121.96875 43.6875 -121.96875 43.6875 -123.28125 41.625 C-123.508125 40.985625 -123.735 40.34625 -123.96875 39.6875 C-123.47503906 39.34976563 -122.98132813 39.01203125 -122.47265625 38.6640625 C-121.83199219 38.21804687 -121.19132813 37.77203125 -120.53125 37.3125 C-119.89316406 36.87164062 -119.25507812 36.43078125 -118.59765625 35.9765625 C-116.83134072 34.76589147 -116.83134072 34.76589147 -115.96875 32.6875 C-116.5875 32.64625 -117.20625 32.605 -117.84375 32.5625 C-119.96875 31.6875 -119.96875 31.6875 -121.21875 29.25 C-122.18093914 24.67960156 -122.13419805 20.33842864 -121.96875 15.6875 C-123.61875 15.6875 -125.26875 15.6875 -126.96875 15.6875 C-126.96875 14.0375 -126.96875 12.3875 -126.96875 10.6875 C-117.39875 10.3575 -107.82875 10.0275 -97.96875 9.6875 C-101.59875 7.0475 -105.22875 4.4075 -108.96875 1.6875 C-108.30875 0.3675 -107.64875 -0.9525 -106.96875 -2.3125 C-104.34375 -3.0625 -104.34375 -3.0625 -101.96875 -3.3125 C-99.98875 -1.0025 -98.00875 1.3075 -95.96875 3.6875 C-96.62875 1.7075 -97.28875 -0.2725 -97.96875 -2.3125 C-95.25995665 -3.66689668 -92.95941732 -3.37751451 -89.96875 -3.3125 C-89.29614649 -1.54391309 -88.63086605 0.22746016 -87.96875 2 C-87.5975 2.98613281 -87.22625 3.97226563 -86.84375 4.98828125 C-85.96875 7.6875 -85.96875 7.6875 -85.96875 10.6875 C-73.42875 10.3575 -60.88875 10.0275 -47.96875 9.6875 C-50.60875 7.0475 -53.24875 4.4075 -55.96875 1.6875 C-56.95875 -0.2925 -56.95875 -0.2925 -57.96875 -2.3125 C-53.22898314 -3.98019575 -53.22898314 -3.98019575 -49.96875 -3.3125 C-45.69280138 0.31929568 -41.49443782 4.63612436 -38.96875 9.6875 C-37.07341658 10.15273063 -37.07341658 10.15273063 -34.90625 10.3125 C-33.606875 10.43625 -32.3075 10.56 -30.96875 10.6875 C-31.071875 9.65625 -31.175 8.625 -31.28125 7.5625 C-30.88478391 2.64632053 -29.53562853 1.02175602 -25.96875 -2.3125 C-17.95182607 -6.23188503 -7.38181818 -4.92121212 0 0 Z M-114.96875 15.6875 C-115.04996924 17.29082791 -115.10804134 18.89534026 -115.15625 20.5 C-115.19105469 21.39332031 -115.22585938 22.28664062 -115.26171875 23.20703125 C-114.91956002 26.10397515 -114.21481427 26.91305028 -111.96875 28.6875 C-109.98875 28.0275 -108.00875 27.3675 -105.96875 26.6875 C-105.96875 23.0575 -105.96875 19.4275 -105.96875 15.6875 C-108.93875 15.6875 -111.90875 15.6875 -114.96875 15.6875 Z M-63.96875 15.6875 C-63.96875 17.9975 -63.96875 20.3075 -63.96875 22.6875 C-66.60875 22.6875 -69.24875 22.6875 -71.96875 22.6875 C-71.96875 23.6775 -71.96875 24.6675 -71.96875 25.6875 C-70.84340895 27.04368499 -70.84340895 27.04368499 -67.90625 26.75 C-66.936875 26.729375 -65.9675 26.70875 -64.96875 26.6875 C-64.96875 28.3375 -64.96875 29.9875 -64.96875 31.6875 C-67.27875 31.6875 -69.58875 31.6875 -71.96875 31.6875 C-71.63875 33.0075 -71.30875 34.3275 -70.96875 35.6875 C-66.77569815 36.09858351 -64.68762417 36.2245899 -61.25 33.65625 C-58.43149845 29.98833702 -58.38115131 27.29774042 -58.65625 22.875 C-58.67880859 22.18212891 -58.70136719 21.48925781 -58.72460938 20.77539062 C-58.78312339 19.07848427 -58.8727952 17.38270139 -58.96875 15.6875 C-60.61875 15.6875 -62.26875 15.6875 -63.96875 15.6875 Z " fill="white" transform="translate(665.96875,135.3125)"/>
<path d="M0 0 C63.36 0 126.72 0 192 0 C192 1.65 192 3.3 192 5 C190.02 5 188.04 5 186 5 C186 7.64 186 10.28 186 13 C180.06 13.495 180.06 13.495 174 14 C174 14.99 174 15.98 174 17 C174.75925781 16.89300781 175.51851562 16.78601563 176.30078125 16.67578125 C177.29464844 16.55589844 178.28851562 16.43601563 179.3125 16.3125 C180.29863281 16.18488281 181.28476563 16.05726563 182.30078125 15.92578125 C185 16 185 16 186.80078125 17.26953125 C188.76455272 20.10324709 188.88287346 22.60333047 189 26 C187.41161066 29.57387602 186.28365642 30.81089572 183 33 C177.66776662 33.71989336 173.26225523 33.64220003 168.4375 31.1875 C166 29 166 29 164 26 C164.375 23.8125 164.375 23.8125 165 22 C166.6875 21.1875 166.6875 21.1875 169 21 C170.68816933 22.64488294 172.35353315 24.31337542 174 26 C177.58085428 27.18352387 177.58085428 27.18352387 181 26 C181.65213292 23.97536745 181.65213292 23.97536745 182 22 C180.80375 22.433125 179.6075 22.86625 178.375 23.3125 C175.80196246 23.97518285 174.57546709 24.28589303 172.16796875 23.08984375 C170.00077385 21.28121151 168.26873376 19.53746752 167 17 C166.75 13.5 166.75 13.5 167 10 C170.20380017 7.86413322 171.01939967 7.76867825 174.6875 7.875 C175.89986328 7.90207031 175.89986328 7.90207031 177.13671875 7.9296875 C177.75160156 7.95289063 178.36648438 7.97609375 179 8 C179 7.01 179 6.02 179 5 C172.4 5 165.8 5 159 5 C159 14.24 159 23.48 159 33 C156.69 33 154.38 33 152 33 C152 23.76 152 14.52 152 5 C145.73 5 139.46 5 133 5 C133.33 6.32 133.66 7.64 134 9 C134.60328125 8.95359375 135.2065625 8.9071875 135.828125 8.859375 C139.57381946 8.69021461 142.21276093 8.57757904 145.5625 10.375 C147.80559072 14.4710787 147.77373464 18.44103414 147 23 C145.11484777 25.57637471 143.80665143 26.59667428 141 28 C139.00039988 28.039992 136.99952758 28.04346799 135 28 C134.67 26.02 134.34 24.04 134 22 C135.65 21.67 137.3 21.34 139 21 C139.33 19.68 139.66 18.36 140 17 C138.11683841 15.89163577 138.11683841 15.89163577 136 15 C135.34 15.33 134.68 15.66 134 16 C133.67 21.61 133.34 27.22 133 33 C130.69 33 128.38 33 126 33 C126 31.02 126 29.04 126 27 C125.40832031 27.11859375 124.81664062 27.2371875 124.20703125 27.359375 C117.69734686 28.42131373 117.69734686 28.42131373 114 26.1875 C110.59457989 22.46282175 110.90808927 19.96317963 111 15 C109.02 15.33 107.04 15.66 105 16 C104.67 21.61 104.34 27.22 104 33 C101.69 33 99.38 33 97 33 C97 31.02 97 29.04 97 27 C96.34 27.33 95.68 27.66 95 28 C90.81855989 28.39447548 88.69053952 28.45035186 85.125 26.125 C82.21289342 23.21289342 82.03931695 22.3997223 81.625 18.1875 C81.68092959 14.76958076 81.9822014 14.02534952 84.0625 11.0625 C87.4681626 8.67129009 89.88567014 8.2420194 94 8 C94.495 10.97 94.495 10.97 95 14 C93.35 14.66 91.7 15.32 90 16 C90.495 18.475 90.495 18.475 91 21 C92.65 21 94.3 21 96 21 C96.33 15.72 96.66 10.44 97 5 C90.4 5 83.8 5 77 5 C77 14.24 77 23.48 77 33 C74.69 33 72.38 33 70 33 C69.67 27.39 69.34 21.78 69 16 C68.01 15.67 67.02 15.34 66 15 C65.67 17.97 65.34 20.94 65 24 C63.02 24 61.04 24 59 24 C58.34 21.36 57.68 18.72 57 16 C56.01 16.33 55.02 16.66 54 17 C53.58109782 19.78938212 53.58109782 19.78938212 54 23 C55.62553283 24.70680947 57.29115995 26.37660195 59 28 C59 29.32 59 30.64 59 32 C58.34 32.66 57.68 33.32 57 34 C54.42808545 33.78089166 53.24258364 33.22156351 51.33203125 31.4765625 C50.83058594 30.86554688 50.32914063 30.25453125 49.8125 29.625 C49.04873047 28.71621094 49.04873047 28.71621094 48.26953125 27.7890625 C45.52842879 23.92621657 45.3855972 19.56795124 46 15 C47.5 12.0625 47.5 12.0625 50 10 C53.72615475 8.83939442 56.82688174 8.56008065 60.5 9.9375 C60.995 10.288125 61.49 10.63875 62 11 C62.66 10.34 63.32 9.68 64 9 C67.125 8.875 67.125 8.875 70 9 C70 7.68 70 6.36 70 5 C60.43 5 50.86 5 41 5 C41 14.24 41 23.48 41 33 C38.69 33 36.38 33 34 33 C34 23.76 34 14.52 34 5 C31.69 5 29.38 5 27 5 C27 14.24 27 23.48 27 33 C24.69 33 22.38 33 20 33 C19.67 30.03 19.34 27.06 19 24 C18.32453125 24.05800781 17.6490625 24.11601562 16.953125 24.17578125 C16.06109375 24.22089844 15.1690625 24.26601562 14.25 24.3125 C13.36828125 24.37050781 12.4865625 24.42851562 11.578125 24.48828125 C9 24 9 24 6.6875 21.9375 C4.57610772 18.26211344 4.59265581 15.8964572 4.75 11.6875 C4.78609375 10.43324219 4.8221875 9.17898437 4.859375 7.88671875 C4.90578125 6.93410156 4.9521875 5.98148438 5 5 C3.35 5 1.7 5 0 5 C0 3.35 0 1.7 0 0 Z M12 5 C11.97313447 6.97909398 11.95366625 8.95828971 11.9375 10.9375 C11.92589844 12.03964844 11.91429687 13.14179688 11.90234375 14.27734375 C11.68737429 16.91447634 11.68737429 16.91447634 13 18 C15.45792029 18.33343551 15.45792029 18.33343551 18 18 C20.20914 14.68629 20.22481553 13.6553979 20.125 9.8125 C20.10695313 8.91144531 20.08890625 8.01039063 20.0703125 7.08203125 C20.04710937 6.39496094 20.02390625 5.70789063 20 5 C17.36 5 14.72 5 12 5 Z M104 5 C104 6.65 104 8.3 104 10 C110.70518586 10.19818283 116.65176798 10.30844801 123 8 C123.33 9.98 123.66 11.96 124 14 C122.35 14.33 120.7 14.66 119 15 C118.32041397 17.39719432 118.32041397 17.39719432 118 20 C118.66 20.66 119.32 21.32 120 22 C122.57540213 21.83492354 122.57540213 21.83492354 125 21 C126.50156874 17.99686252 126.09281204 15.20932478 126.0625 11.875 C126.041875 9.60625 126.02125 7.3375 126 5 C118.74 5 111.48 5 104 5 Z " fill="white" transform="translate(886,146)"/>
<path d="M0 0 C3.37974726 1.83573641 5.54452844 4.15116665 7.375 7.5625 C8 10 8 10 8 14 C20.21 14 32.42 14 45 14 C45 15.65 45 17.3 45 19 C43.02 19 41.04 19 39 19 C39 28.24 39 37.48 39 47 C36.69 47 34.38 47 32 47 C32 44.69 32 42.38 32 40 C31.01 40.495 31.01 40.495 30 41 C25.81103254 41.42794952 22.09255875 41.40377171 18.125 39.9375 C15.24031378 37.30734492 14.24347828 34.66498863 13 31 C13 30.01 13 29.02 13 28 C14.98 27.01 16.96 26.02 19 25 C19 23.02 19 21.04 19 19 C15.37 19 11.74 19 8 19 C8 28.24 8 37.48 8 47 C6.02 47 4.04 47 2 47 C2 37.76 2 28.52 2 19 C-0.64 19 -3.28 19 -6 19 C-6 28.24 -6 37.48 -6 47 C-8.31 47 -10.62 47 -13 47 C-13 41.39 -13 35.78 -13 30 C-19.4 30.2 -19.4 30.2 -21 32 C-20.69457852 37.29397231 -19.63172245 40.13397287 -16 44 C-17.32 45.32 -18.64 46.64 -20 48 C-23.80489745 46.50521886 -25.66190835 44.30557786 -28 41 C-29.25066134 37.24801599 -29.60793341 33.8893089 -29 30 C-26.68960327 25.53854424 -26.68960327 25.53854424 -24 24 C-20.27891681 23.5087334 -16.72932651 23.64731413 -13 24 C-13 22.35 -13 20.7 -13 19 C-19.93 19 -26.86 19 -34 19 C-33.896875 20.711875 -33.79375 22.42375 -33.6875 24.1875 C-33.65374323 29.4265502 -33.65374323 29.4265502 -35.11328125 31.84375 C-36.5 33.1875 -36.5 33.1875 -39 35 C-36.69 37.97 -34.38 40.94 -32 44 C-33.32 45.32 -34.64 46.64 -36 48 C-39.11223194 46.64773103 -40.90801029 45.24130881 -43.015625 42.59375 C-43.54414063 41.93246094 -44.07265625 41.27117187 -44.6171875 40.58984375 C-45.15601563 39.90019531 -45.69484375 39.21054688 -46.25 38.5 C-46.80429687 37.81035156 -47.35859375 37.12070313 -47.9296875 36.41015625 C-52 31.26712592 -52 31.26712592 -52 29 C-50.375 27.25 -50.375 27.25 -48 26 C-44.75 26.8125 -44.75 26.8125 -42 28 C-41.67 25.03 -41.34 22.06 -41 19 C-45.62 19 -50.24 19 -55 19 C-55 28.24 -55 37.48 -55 47 C-57.31 47 -59.62 47 -62 47 C-62 37.76 -62 28.52 -62 19 C-64.64 19 -67.28 19 -70 19 C-70 28.24 -70 37.48 -70 47 C-71.98 47 -73.96 47 -76 47 C-76 42.71 -76 38.42 -76 34 C-78.97 34 -81.94 34 -85 34 C-85 35.65 -85 37.3 -85 39 C-90.4180602 39.36120401 -90.4180602 39.36120401 -92.8125 37.875 C-94.42228269 35.33323785 -94.67109009 32.9601892 -95 30 C-94.01 29.34 -93.02 28.68 -92 28 C-91.63702064 26.02252878 -91.63702064 26.02252878 -91.8125 23.875 C-91.874375 22.59625 -91.93625 21.3175 -92 20 C-93.98 19.67 -95.96 19.34 -98 19 C-98 17.35 -98 15.7 -98 14 C-96.39667209 13.91878076 -94.79215974 13.86070866 -93.1875 13.8125 C-92.29417969 13.77769531 -91.40085937 13.74289063 -90.48046875 13.70703125 C-88 14 -88 14 -86.23828125 15.38671875 C-83.331265 19.17409323 -83.92514348 22.3588955 -84 27 C-81.36 27 -78.72 27 -76 27 C-76 24.36 -76 21.72 -76 19 C-77.65 19 -79.3 19 -81 19 C-81 17.35 -81 15.7 -81 14 C-53.94 14 -26.88 14 1 14 C0.01 11.69 -0.98 9.38 -2 7 C-4.57732914 5.94832473 -4.57732914 5.94832473 -7 6 C-7 7.98 -7 9.96 -7 12 C-9.31 12 -11.62 12 -14 12 C-15.42041821 9.15916359 -15.31452272 7.14522722 -15 4 C-10.53537051 -1.50637638 -6.59841666 -1.61910728 0 0 Z M26 19 C26.103125 20.051875 26.20625 21.10375 26.3125 22.1875 C26 26 26 26 23.5 28.9375 C22.675 29.618125 21.85 30.29875 21 31 C21.66 32.32 22.32 33.64 23 35 C27.04573308 35.36969934 27.04573308 35.36969934 30.6875 33.90625 C32.64499078 31.06322767 32.28856821 28.71512984 32.1875 25.3125 C32.16042969 24.13300781 32.13335938 22.95351562 32.10546875 21.73828125 C32.07066406 20.83464844 32.03585937 19.93101562 32 19 C30.02 19 28.04 19 26 19 Z " fill="white" transform="translate(484,132)"/>
<path d="M0 0 C2.92371307 2.30353151 2.9669218 3.74009988 3.4375 7.4375 C2.91635007 11.68114946 2.124973 13.11540953 -1 16 C-3.3010239 17.22688426 -5.53837197 18.10055899 -8 19 C-6.96431405 20.70735301 -6.96431405 20.70735301 -5 22 C0.04565002 21.80862516 0.04565002 21.80862516 4 19 C5.54454554 12.82181785 5.57638536 6.35421956 6 0 C23.49 0 40.98 0 59 0 C59 1.65 59 3.3 59 5 C57.02 5 55.04 5 53 5 C53 14.24 53 23.48 53 33 C50.69 33 48.38 33 46 33 C46 28.05 46 23.1 46 18 C43.69 18 41.38 18 39 18 C39 19.65 39 21.3 39 23 C36.6875 23.6875 36.6875 23.6875 34 24 C31.33449402 22.38165709 31.00108018 21.00370348 30.125 18 C30 15 30 15 31.07421875 13.32421875 C33.93115192 11.35971501 36.26816435 11.71093557 39.6875 11.8125 C41.45673828 11.85310547 41.45673828 11.85310547 43.26171875 11.89453125 C44.16535156 11.92933594 45.06898438 11.96414062 46 12 C46 9.69 46 7.38 46 5 C39.4 5 32.8 5 26 5 C26 14.24 26 23.48 26 33 C24.02 33 22.04 33 20 33 C20 23.76 20 14.52 20 5 C17.36 5 14.72 5 12 5 C12 14.24 12 23.48 12 33 C10.02 33 8.04 33 6 33 C5.505 30.03 5.505 30.03 5 27 C4.14535156 27.48339844 4.14535156 27.48339844 3.2734375 27.9765625 C-0.44379992 29.64995804 -4.00283588 29.57498201 -8 29 C-11.8026029 26.9949912 -13.61790841 25.57313738 -16 22 C-18.34501511 21.1633378 -18.34501511 21.1633378 -21 20.75 C-21.886875 20.57984375 -22.77375 20.4096875 -23.6875 20.234375 C-26.02428537 19.78917452 -26.02428537 19.78917452 -28 21 C-25.69 23.97 -23.38 26.94 -21 30 C-22.32 31.32 -23.64 32.64 -25 34 C-28.14791257 32.63986419 -29.91363823 31.21946401 -32.015625 28.5234375 C-32.54414062 27.853125 -33.07265625 27.1828125 -33.6171875 26.4921875 C-34.15601563 25.79351562 -34.69484375 25.09484375 -35.25 24.375 C-36.08144531 23.31539062 -36.08144531 23.31539062 -36.9296875 22.234375 C-38.29322504 20.49468917 -39.64961945 18.74990519 -41 17 C-38.525 14.525 -38.525 14.525 -36 12 C-33.525 12.99 -33.525 12.99 -31 14 C-30.67 11.03 -30.34 8.06 -30 5 C-34.62 5 -39.24 5 -44 5 C-44 14.24 -44 23.48 -44 33 C-46.31 33 -48.62 33 -51 33 C-51 29.04 -51 25.08 -51 21 C-54.96 21 -58.92 21 -63 21 C-60.69 23.97 -58.38 26.94 -56 30 C-57.32 31.32 -58.64 32.64 -60 34 C-63.14791257 32.63986419 -64.91363823 31.21946401 -67.015625 28.5234375 C-67.54414062 27.853125 -68.07265625 27.1828125 -68.6171875 26.4921875 C-69.15601563 25.79351562 -69.69484375 25.09484375 -70.25 24.375 C-70.80429687 23.66859375 -71.35859375 22.9621875 -71.9296875 22.234375 C-73.29322504 20.49468917 -74.64961945 18.74990519 -76 17 C-74.71579837 15.61928217 -73.37807053 14.28704202 -72 13 C-69.9375 13.1875 -69.9375 13.1875 -68 14 C-67.01 14.33 -66.02 14.66 -65 15 C-65 11.7 -65 8.4 -65 5 C-68.96 5 -72.92 5 -77 5 C-77 3.35 -77 1.7 -77 0 C-57.2 0 -37.4 0 -17 0 C-17 1.65 -17 3.3 -17 5 C-18.98 5 -20.96 5 -23 5 C-23 8.3 -23 11.6 -23 15 C-19.04 14.01 -15.08 13.02 -11 12 C-11.99 11.67 -12.98 11.34 -14 11 C-14.60048426 3.79418886 -14.60048426 3.79418886 -12.0625 0.4375 C-7.80638465 -1.56026843 -4.46935373 -1.32616662 0 0 Z M-58 5 C-58 7.97 -58 10.94 -58 14 C-54.41672247 15.00217064 -54.41672247 15.00217064 -51 14 C-51 11.03 -51 8.06 -51 5 C-53.31 5 -55.62 5 -58 5 Z M-7 5 C-8.33333333 8 -8.33333333 8 -7 11 C-6.01 10.67 -5.02 10.34 -4 10 C-4.33 8.35 -4.66 6.7 -5 5 C-5.66 5 -6.32 5 -7 5 Z " fill="white" transform="translate(817,146)"/>
<path d="M0 0 C51.15 0 102.3 0 155 0 C155 1.65 155 3.3 155 5 C103.85 5 52.7 5 0 5 C0 3.35 0 1.7 0 0 Z " fill="white" transform="translate(117,187)"/>
<path d="M0 0 C1.051875 -0.00257812 2.10375 -0.00515625 3.1875 -0.0078125 C6 0.125 6 0.125 9 1.125 C9.0744389 5.1634057 9.12873729 9.20154293 9.16479492 13.24047852 C9.17983432 14.61294517 9.20027133 15.98536414 9.22631836 17.35766602 C9.26291221 19.33588656 9.27816698 21.31446514 9.29296875 23.29296875 C9.3086792 24.48172607 9.32438965 25.6704834 9.34057617 26.89526367 C8.87812538 31.28075583 7.28582896 33.85302695 4.1875 36.91796875 C1.32580895 38.49700899 -0.74668325 38.4903664 -4 38.4375 C-5.03125 38.43363281 -6.0625 38.42976563 -7.125 38.42578125 C-9.92633186 38.13270713 -11.61170203 37.56601632 -14 36.125 C-13.6875 33.75 -13.6875 33.75 -13 31.125 C-12.01 30.465 -11.02 29.805 -10 29.125 C-9.01 29.785 -8.02 30.445 -7 31.125 C-4.66800612 31.20405064 -2.33167378 31.21298769 0 31.125 C0.33 29.805 0.66 28.485 1 27.125 C0.32453125 27.17140625 -0.3509375 27.2178125 -1.046875 27.265625 C-8.33026371 27.56032859 -8.33026371 27.56032859 -11.5 25.5 C-14.87554483 20.15538735 -15.38675468 15.71362475 -14.61328125 9.53515625 C-13.62755746 5.66132456 -11.91573468 3.83246791 -9 1.125 C-5.77717587 0.05072529 -3.38488847 -0.0082963 0 0 Z M-5.8125 7.1875 C-7.64085164 10.17060004 -7.88025472 12.65238683 -8 16.125 C-7.13353917 19.12655751 -7.13353917 19.12655751 -5 21.125 C-1.91538029 21.62542146 -1.91538029 21.62542146 1 21.125 C2.36532549 19.98798403 2.36532549 19.98798403 2.09765625 16.96484375 C2.08605469 15.67707031 2.07445312 14.38929687 2.0625 13.0625 C2.05347656 11.77214844 2.04445313 10.48179688 2.03515625 9.15234375 C2.02355469 8.15332031 2.01195312 7.15429688 2 6.125 C-2.08601167 5.86381852 -2.08601167 5.86381852 -5.8125 7.1875 Z " fill="white" transform="translate(1025,92.875)"/>
<path d="M0 0 C2.31 0 4.62 0 7 0 C7 12.54 7 25.08 7 38 C4.36 38 1.72 38 -1 38 C-2.216875 38.20625 -3.43375 38.4125 -4.6875 38.625 C-8.29247581 39.03311047 -9.8912477 38.81343884 -13 37 C-16.80925682 32.78260852 -17.28512367 28.83084795 -17.22265625 23.3515625 C-16.81151338 19.00931671 -15.24055522 15.55069403 -12.5 12.125 C-9.72378867 10.0428415 -7.14676601 9.8828399 -3.8125 9.9375 C-1.9253125 9.9684375 -1.9253125 9.9684375 0 10 C0 6.7 0 3.4 0 0 Z M-7.75 17 C-9.70100694 20.1216111 -10 23.39474334 -10 27 C-9.48959656 29.91002521 -9.48959656 29.91002521 -8 32 C-6.16666667 33.16666667 -6.16666667 33.16666667 -4 33 C-1.76629326 31.99134963 -1.76629326 31.99134963 0 30 C0.52245629 26.83785958 0.52245629 26.83785958 0.3125 23.375 C0.27576172 21.62316406 0.27576172 21.62316406 0.23828125 19.8359375 C0.31566146 17.10052146 0.31566146 17.10052146 -1 16 C-3.67531735 15.71838765 -5.38654675 15.64945529 -7.75 17 Z " fill="white" transform="translate(1267,83)"/>
<path d="M0 0 C2.31 0 4.62 0 7 0 C7 12.54 7 25.08 7 38 C4.36 38 1.72 38 -1 38 C-2.8253125 38.3403125 -2.8253125 38.3403125 -4.6875 38.6875 C-8 39 -8 39 -10.75 37.875 C-14.08022097 35.09981586 -15.7804059 32.45209073 -16.43359375 28.1328125 C-16.4421557 21.54011282 -16.11946387 17.26375939 -12 12 C-8.5215947 9.1427385 -4.29232308 9.85692256 0 10 C0 6.7 0 3.4 0 0 Z M-8 18 C-9.23100725 21.69302176 -9.59489903 25.16019717 -9 29 C-7.16658535 31.50520579 -7.16658535 31.50520579 -5 33 C-1.75016865 31.91215032 -1.75016865 31.91215032 1 30 C1.0989294 27.83519203 1.129711 25.66706215 1.125 23.5 C1.12757813 22.3140625 1.13015625 21.128125 1.1328125 19.90625 C1.33210219 17.10740578 1.33210219 17.10740578 0 16 C-3.72224599 15.70613847 -4.77786243 15.85190829 -8 18 Z " fill="white" transform="translate(445,83)"/>
<path d="M0 0 C17 0 17 0 23 4 C24.7246216 7.4492432 24.36610104 11.22131431 24 15 C22.74636835 17.94603438 21.90306767 19.44142151 19.1875 21.12109375 C15.48253848 22.60969436 11.95747735 22.11639639 8 22 C8 26.29 8 30.58 8 35 C5.36 35 2.72 35 0 35 C0 23.45 0 11.9 0 0 Z M8 6 C8 9.3 8 12.6 8 16 C12.16938808 16.33467338 12.16938808 16.33467338 15.9375 14.8125 C17.23330193 12.98086328 17.23330193 12.98086328 16.875 10.4375 C16.15610832 7.6738389 16.15610832 7.6738389 13 6 C11.35 6 9.7 6 8 6 Z " fill="white" transform="translate(1078,86)"/>
<path d="M0 0 C2.31 0 4.62 0 7 0 C7.33 3.63 7.66 7.26 8 11 C8.66 10.67 9.32 10.34 10 10 C17.14403292 9.53909465 17.14403292 9.53909465 20.4375 11.3125 C23.21041276 14.30724578 23.12010384 17.22203565 23.09765625 21.10546875 C23.09443359 22.08837891 23.09121094 23.07128906 23.08789062 24.08398438 C23.07951172 25.10814453 23.07113281 26.13230469 23.0625 27.1875 C23.05798828 28.22326172 23.05347656 29.25902344 23.04882812 30.32617188 C23.0370401 32.88417266 23.02058515 35.44205733 23 38 C20.69 38 18.38 38 16 38 C15.97494385 37.43490723 15.9498877 36.86981445 15.92407227 36.28759766 C15.80820044 33.73316258 15.68543463 31.1791045 15.5625 28.625 C15.52318359 27.73554687 15.48386719 26.84609375 15.44335938 25.9296875 C15.38051758 24.65351562 15.38051758 24.65351562 15.31640625 23.3515625 C15.27974854 22.56604004 15.24309082 21.78051758 15.20532227 20.97119141 C15.109109 18.92476504 15.109109 18.92476504 14 17 C12.02 17 10.04 17 8 17 C7.67 23.93 7.34 30.86 7 38 C4.69 38 2.38 38 0 38 C0 25.46 0 12.92 0 0 Z " fill="white" transform="translate(883,83)"/>
<path d="M0 0 C2.31 0 4.62 0 7 0 C7.33 6.6 7.66 13.2 8 20 C8.804375 18.35 9.60875 16.7 10.4375 15 C13.25281435 10.20653912 13.25281435 10.20653912 16.40234375 9.3359375 C18.67462412 9.3718345 20.77328281 9.55465656 23 10 C22.2302804 11.3964478 21.45916631 12.79212699 20.6875 14.1875 C20.25824219 14.96480469 19.82898437 15.74210937 19.38671875 16.54296875 C17.96813038 19.05646758 16.49517348 21.53142913 15 24 C15.5775 24.84304687 16.155 25.68609375 16.75 26.5546875 C17.50024193 27.66129435 18.25022874 28.76807419 19 29.875 C20.11375 31.51082031 20.11375 31.51082031 21.25 33.1796875 C23 36 23 36 23 38 C20.03 38 17.06 38 14 38 C12.02 34.37 10.04 30.74 8 27 C7.67 30.63 7.34 34.26 7 38 C4.69 38 2.38 38 0 38 C0 25.46 0 12.92 0 0 Z " fill="white" transform="translate(1172,83)"/>
<path d="M0 0 C2.31 0 4.62 0 7 0 C7.33 6.27 7.66 12.54 8 19 C8.825 17.515 9.65 16.03 10.5 14.5 C13.3220657 10.18588521 13.3220657 10.18588521 16.1796875 9.40234375 C18.375 9.4375 18.375 9.4375 22 10 C20.88147273 13.35558181 19.45911259 15.72877884 17.25 18.4375 C15.15091468 21.29626823 15.15091468 21.29626823 15.3125 24.875 C17.24971193 28.4624295 19.42028288 31.8060021 21.7578125 35.14453125 C23 37 23 37 23 38 C19.81176617 38.63764677 17.15600623 38.87239197 14 38 C11.36391376 34.96450676 9.66022399 31.64598209 8 28 C7.67 31.3 7.34 34.6 7 38 C4.69 38 2.38 38 0 38 C0 25.46 0 12.92 0 0 Z " fill="white" transform="translate(1199,83)"/>
<path d="M0 0 C2.64 0 5.28 0 8 0 C9.65 4.95 11.3 9.9 13 15 C14.65 10.05 16.3 5.1 18 0 C20.64 0 23.28 0 26 0 C24.66354953 4.47023591 23.3122314 8.93560507 21.94726562 13.3972168 C21.48552185 14.91388988 21.02778134 16.431788 20.57421875 17.95092773 C19.91949181 20.14124779 19.25023324 22.32667853 18.578125 24.51171875 C18.28098602 25.52295052 18.28098602 25.52295052 17.97784424 26.55461121 C16.66209771 30.76887774 15.02112978 33.77793729 12 37 C9.59454362 38.20272819 8.05003047 38.10071472 5.375 38.0625 C4.14910156 38.04896484 4.14910156 38.04896484 2.8984375 38.03515625 C2.27195312 38.02355469 1.64546875 38.01195312 1 38 C1.495 35.03 1.495 35.03 2 32 C3.98 31.67 5.96 31.34 8 31 C9.39584413 27.25767947 8.57075806 25.10608931 7.12890625 21.46484375 C6.51499023 19.88026367 6.51499023 19.88026367 5.88867188 18.26367188 C5.45103516 17.16603516 5.01339844 16.06839844 4.5625 14.9375 C3.70532386 12.76080754 2.85225892 10.58249025 2.00390625 8.40234375 C1.62049072 7.43804443 1.2370752 6.47374512 0.84204102 5.48022461 C0 3 0 3 0 0 Z " fill="white" transform="translate(1037,93)"/>
<path d="M0 0 C2.97361086 2.21563162 4.36959793 3.73919585 6 7 C7.01146601 21.08271908 7.01146601 21.08271908 3 26 C-1.67529393 28.89868224 -5.47139997 29.58451229 -10.9140625 28.68359375 C-13.6633802 27.78260012 -15.47486894 26.38352264 -17.125 24 C-19.56534062 18.42207857 -19.7316403 12.2468179 -17.8125 6.5 C-13.8633974 -1.1258533 -7.96766064 -1.19732605 0 0 Z M-9.1015625 6.12109375 C-11.25643051 7.89813392 -11.25643051 7.89813392 -11.53125 10.8125 C-11.5209375 11.864375 -11.510625 12.91625 -11.5 14 C-11.5103125 15.051875 -11.520625 16.10375 -11.53125 17.1875 C-11.24968458 20.09576698 -11.24968458 20.09576698 -9.13671875 21.91796875 C-6.9742562 23.30780324 -6.9742562 23.30780324 -4.3125 22.3125 C-1.8740778 21.21242528 -1.8740778 21.21242528 -1 19 C-0.80241769 16.92435324 -0.80241769 16.92435324 -0.8125 14.625 C-0.79123047 13.46871094 -0.79123047 13.46871094 -0.76953125 12.2890625 C-1.0256457 9.7452817 -1.65035237 8.16039002 -3 6 C-5.61433395 4.69283302 -6.51241522 4.73989436 -9.1015625 6.12109375 Z " fill="white" transform="translate(1001,93)"/>
<path d="M0 0 C3.48242391 2.52646441 4.65226822 3.95680465 6 8 C6.97537323 20.998724 6.97537323 20.998724 3 26 C-1.78427571 28.96625094 -5.44039448 29.45107281 -10.984375 28.57421875 C-14.86362967 27.46908225 -16.33125823 25.1702981 -18.25 21.8125 C-20.07152847 14.98176825 -19.44146833 9.14547916 -16 3 C-11.45090906 -1.35486009 -5.93296709 -0.88346095 0 0 Z M-9.1875 5.9375 C-11.83320509 8.94812992 -12.08321253 12.126835 -12 16 C-11.09108722 19.21615293 -10.35959872 20.64040128 -8 23 C-5.45286596 22.99077298 -5.45286596 22.99077298 -3 22 C-0.5203876 19.04808048 -0.70248771 15.59463135 -0.8125 11.90234375 C-1.05113436 9.48119933 -1.46975664 7.9128042 -3 6 C-5.56823014 4.71588493 -6.54664895 4.80570669 -9.1875 5.9375 Z " fill="white" transform="translate(766,93)"/>
<path d="M0 0 C2.97361086 2.21563162 4.36959793 3.73919585 6 7 C7.04196605 20.32350033 7.04196605 20.32350033 4.375 24.75 C1.10633809 27.84662708 -1.45864101 28.96505007 -5.98828125 29.02734375 C-10.70726064 28.68075204 -13.79330018 27.67827332 -17 24 C-19.15126955 18.2306862 -19.56003571 12.996733 -18 7 C-14.15082646 -1.03451944 -8.2374177 -1.01045657 0 0 Z M-9.25 6.3125 C-11.89161975 10.36927318 -11.81346779 14.29127296 -11 19 C-9.20808542 21.63516042 -9.20808542 21.63516042 -7 23 C-3.27385847 21.88145414 -3.27385847 21.88145414 -1 19 C-0.87885079 17.35744209 -0.82459233 15.70947522 -0.8125 14.0625 C-0.79123047 12.74958984 -0.79123047 12.74958984 -0.76953125 11.41015625 C-0.83336651 8.73755665 -0.83336651 8.73755665 -3 6 C-5.75469047 4.62265477 -6.57020905 4.74928861 -9.25 6.3125 Z " fill="white" transform="translate(958,93)"/>
<path d="M0 0 C1.40378906 -0.05994141 1.40378906 -0.05994141 2.8359375 -0.12109375 C6.87001393 0.68685153 8.24012207 2.11156213 10.625 5.4375 C11.20386503 8.40816296 11.10159353 11.23825266 10.9375 14.25 C10.91494141 15.03826172 10.89238281 15.82652344 10.86914062 16.63867188 C10.81054161 18.57243929 10.72086827 20.50522167 10.625 22.4375 C11.615 22.7675 12.605 23.0975 13.625 23.4375 C13.625 25.0875 13.625 26.7375 13.625 28.4375 C6.875 28.5625 6.875 28.5625 4.625 27.4375 C3.903125 27.7675 3.18125 28.0975 2.4375 28.4375 C-1.23586374 29.74358489 -3.61505621 29.34267165 -7.375 28.4375 C-9.5301763 26.81612894 -10.27924405 25.95570865 -10.7734375 23.28125 C-10.76570313 22.5078125 -10.75796875 21.734375 -10.75 20.9375 C-10.75773437 20.1640625 -10.76546875 19.390625 -10.7734375 18.59375 C-10.2806562 15.92693358 -9.5026451 15.07568683 -7.375 13.4375 C-4.62421116 12.52057039 -3.01551087 12.32863917 -0.1875 12.375 C1.6996875 12.4059375 1.6996875 12.4059375 3.625 12.4375 C3.295 10.7875 2.965 9.1375 2.625 7.4375 C0.645 7.4375 -1.335 7.4375 -3.375 7.4375 C-3.705 8.0975 -4.035 8.7575 -4.375 9.4375 C-6.375 8.4375 -8.375 7.4375 -10.375 6.4375 C-8.14600366 1.2936623 -5.47306539 0.12745495 0 0 Z M-3.375 18.4375 C-3.045 20.0875 -2.715 21.7375 -2.375 23.4375 C-0.725 23.1075 0.925 22.7775 2.625 22.4375 C2.955 20.7875 3.285 19.1375 3.625 17.4375 C-0.00385324 17.28600702 -0.00385324 17.28600702 -3.375 18.4375 Z " fill="white" transform="translate(1234.375,92.5625)"/>
<path d="M0 0 C1.40378906 -0.05994141 1.40378906 -0.05994141 2.8359375 -0.12109375 C6.87001393 0.68685153 8.24012207 2.11156213 10.625 5.4375 C11.20386503 8.40816296 11.10159353 11.23825266 10.9375 14.25 C10.91494141 15.03826172 10.89238281 15.82652344 10.86914062 16.63867188 C10.81054161 18.57243929 10.72086827 20.50522167 10.625 22.4375 C11.615 22.7675 12.605 23.0975 13.625 23.4375 C13.625 25.0875 13.625 26.7375 13.625 28.4375 C6.875 28.5625 6.875 28.5625 4.625 27.4375 C3.903125 27.7675 3.18125 28.0975 2.4375 28.4375 C-1.23586374 29.74358489 -3.61505621 29.34267165 -7.375 28.4375 C-9.3125 27.375 -9.3125 27.375 -10.375 25.4375 C-11.15169903 18.44720874 -11.15169903 18.44720874 -8.5 15 C-4.32002436 11.9264885 -1.46635033 12.35538145 3.625 12.4375 C3.295 10.7875 2.965 9.1375 2.625 7.4375 C0.645 7.4375 -1.335 7.4375 -3.375 7.4375 C-3.705 8.0975 -4.035 8.7575 -4.375 9.4375 C-6.375 8.4375 -8.375 7.4375 -10.375 6.4375 C-8.14600366 1.2936623 -5.47306539 0.12745495 0 0 Z M-3.375 18.4375 C-3.045 20.0875 -2.715 21.7375 -2.375 23.4375 C-0.725 23.1075 0.925 22.7775 2.625 22.4375 C2.955 20.7875 3.285 19.1375 3.625 17.4375 C-0.00385324 17.28600702 -0.00385324 17.28600702 -3.375 18.4375 Z " fill="white" transform="translate(1113.375,92.5625)"/>
<path d="M0 0 C3.61691275 2.09780939 4.68291409 3.04874226 6 7 C6.12979439 10.00603796 6.04363173 12.98941031 6 16 C0.39 16 -5.22 16 -11 16 C-8.6646381 21.13088951 -8.6646381 21.13088951 -5.125 21.9375 C-1.84066462 22.00318671 0.08651552 21.45674224 3 20 C3.66 21.98 4.32 23.96 5 26 C-0.59815173 28.97774028 -4.80971959 29.69564904 -11 28 C-14.35576078 26.07222253 -15.65131299 24.73058231 -17.3125 21.25 C-18.78099037 14.30804553 -18.39936237 9.87923337 -15.16796875 3.6640625 C-11.55435311 -1.48443336 -5.60335207 -0.67993892 0 0 Z M-6 5 C-8.79197732 7.29182272 -8.79197732 7.29182272 -11 10 C-11 10.33 -11 10.66 -11 11 C-7.7 11 -4.4 11 -1 11 C-1.33 9.35 -1.66 7.7 -2 6 C-3.72476911 5.04497842 -3.72476911 5.04497842 -6 5 Z " fill="white" transform="translate(848,93)"/>
<path d="M0 0 C0.94746094 -0.01675781 1.89492188 -0.03351563 2.87109375 -0.05078125 C6.01338404 0.37335953 7.34069564 1.07045141 9.5625 3.3125 C11.32593945 7.50066868 10.94027666 12.58043057 11.16796875 17.08789062 C11.07420272 20.49127167 11.07420272 20.49127167 12.5625 23.3125 C12.60313832 24.97867115 12.605221 26.64638095 12.5625 28.3125 C9.22916667 28.3125 5.89583333 28.3125 2.5625 28.3125 C0.8609375 28.6528125 0.8609375 28.6528125 -0.875 29 C-4.9646323 29.35873968 -6.28124345 28.83750524 -9.4375 26.3125 C-11.4375 23.3125 -11.4375 23.3125 -11.375 19.875 C-10.4375 16.3125 -10.4375 16.3125 -8.4375 13.875 C-4.36375304 11.75325679 -0.93922909 11.95942321 3.5625 12.3125 C3.2325 10.3325 2.9025 8.3525 2.5625 6.3125 C1.469375 6.6425 0.37625 6.9725 -0.75 7.3125 C-4.4375 8.3125 -4.4375 8.3125 -7.4375 8.3125 C-8.4275 7.6525 -9.4175 6.9925 -10.4375 6.3125 C-8.18126513 1.10580415 -5.52717694 0.02249868 0 0 Z M-2.4375 17.3125 C-3.0975 18.6325 -3.7575 19.9525 -4.4375 21.3125 C-3.7775 21.9725 -3.1175 22.6325 -2.4375 23.3125 C0.16530568 22.99208603 0.16530568 22.99208603 2.5625 22.3125 C2.8925 20.6625 3.2225 19.0125 3.5625 17.3125 C1.5825 17.3125 -0.3975 17.3125 -2.4375 17.3125 Z " fill="white" transform="translate(482.4375,92.6875)"/>
<path d="M0 0 C3.1875 1.8125 3.1875 1.8125 5 5 C5.3919752 8.77143709 5.22969093 12.18713061 5 16 C-0.28 16 -5.56 16 -11 16 C-10.34 17.65 -9.68 19.3 -9 21 C-5.525371 22.15820967 -3.61168274 22.19946176 -0.125 21.0625 C0.926875 20.5365625 0.926875 20.5365625 2 20 C2.99 21.98 3.98 23.96 5 26 C0.03444228 29.31037181 -5.00243676 29.29472245 -10.8125 28.4375 C-13.83283565 27.07538784 -15.67237765 26.01986823 -17.34375 23.109375 C-19.09109083 17.49292232 -19.2360081 10.62698969 -16.72265625 5.28515625 C-12.14298069 -0.78992357 -7.25333735 -1.08370869 0 0 Z M-9.25 6.25 C-9.8275 6.8275 -10.405 7.405 -11 8 C-11 8.99 -11 9.98 -11 11 C-7.7 11 -4.4 11 -1 11 C-2.03528176 7.30726889 -2.03528176 7.30726889 -4.875 5 C-7.11938722 4.82800146 -7.11938722 4.82800146 -9.25 6.25 Z " fill="white" transform="translate(726,93)"/>
<path d="M0 0 C2.20795727 2.21018143 2.94129405 3.54196733 3.34057617 6.65722656 C3.32486572 7.64174805 3.30915527 8.62626953 3.29296875 9.640625 C3.28330078 10.71054688 3.27363281 11.78046875 3.26367188 12.8828125 C3.23853516 13.99398437 3.21339844 15.10515625 3.1875 16.25 C3.16719727 17.93996094 3.16719727 17.93996094 3.14648438 19.6640625 C3.11115645 22.44319264 3.0618252 25.22135363 3 28 C0.69 28 -1.62 28 -4 28 C-4.33 21.07 -4.66 14.14 -5 7 C-6.65 7 -8.3 7 -10 7 C-12.3968665 9.3968665 -12.28281133 10.07028314 -12.4140625 13.3515625 C-12.45273437 14.20234375 -12.49140625 15.053125 -12.53125 15.9296875 C-12.5621875 16.81914063 -12.593125 17.70859375 -12.625 18.625 C-12.68300781 19.97078125 -12.68300781 19.97078125 -12.7421875 21.34375 C-12.83659357 23.5622927 -12.92216748 25.78082403 -13 28 C-15.31 28 -17.62 28 -20 28 C-20 18.76 -20 9.52 -20 0 C-17 0 -14 0 -11 0 C-10.4225 -0.185625 -9.845 -0.37125 -9.25 -0.5625 C-5.91713774 -1.21055655 -3.28766646 -0.7770848 0 0 Z " fill="white" transform="translate(519,93)"/>
<path d="M0 0 C1.56041016 -0.04253906 1.56041016 -0.04253906 3.15234375 -0.0859375 C6.0625 0.375 6.0625 0.375 8.40234375 1.859375 C10.80232458 5.49605183 10.65883217 8.72849315 10.6875 13 C10.41674992 18.69803927 10.41674992 18.69803927 13.0625 23.375 C13.1875 26 13.1875 26 13.0625 28.375 C9.72916667 28.375 6.39583333 28.375 3.0625 28.375 C1.969375 28.601875 0.87625 28.82875 -0.25 29.0625 C-4.52200203 29.42453407 -6.37359475 28.66608195 -9.9375 26.375 C-11.52689347 23.19621306 -11.35326711 20.8793228 -10.9375 17.375 C-8.23904023 14.12301002 -6.73802112 12.60335878 -2.53515625 12.0703125 C-0.31216188 12.06328882 1.85137412 12.15388741 4.0625 12.375 C3.4025 10.725 2.7425 9.075 2.0625 7.375 C-1.65349191 7.17413557 -2.70958445 7.2230563 -5.9375 9.375 C-7.2575 8.385 -8.5775 7.395 -9.9375 6.375 C-9.625 4.5 -9.625 4.5 -8.9375 2.375 C-5.51828453 0.09552302 -4.03439823 0.04986895 0 0 Z M-3.9375 19.375 C-3.9375 20.365 -3.9375 21.355 -3.9375 22.375 C-1.58382287 23.0628236 -1.58382287 23.0628236 1.0625 23.375 C2.0525 22.715 3.0425 22.055 4.0625 21.375 C4.0625 20.055 4.0625 18.735 4.0625 17.375 C-0.43054582 16.94996554 -0.43054582 16.94996554 -3.9375 19.375 Z " fill="white" transform="translate(1154.9375,92.625)"/>
<path d="M0 0 C2.68707363 2.10962575 3.87138634 3.24740262 4.45410156 6.65722656 C4.42268066 8.13400879 4.42268066 8.13400879 4.390625 9.640625 C4.37128906 11.24550781 4.37128906 11.24550781 4.3515625 12.8828125 C4.31804687 13.99398437 4.28453125 15.10515625 4.25 16.25 C4.23195313 17.37664062 4.21390625 18.50328125 4.1953125 19.6640625 C4.14820222 22.44356896 4.08243361 25.2213534 4 28 C1.69 28 -0.62 28 -3 28 C-3.33 20.74 -3.66 13.48 -4 6 C-6.31 6.33 -8.62 6.66 -11 7 C-11.33 13.93 -11.66 20.86 -12 28 C-14.31 28 -16.62 28 -19 28 C-19 18.76 -19 9.52 -19 0 C-16 0 -13 0 -10 0 C-9.401875 -0.185625 -8.80375 -0.37125 -8.1875 -0.5625 C-5.15135059 -1.16972988 -2.98275619 -0.8078298 0 0 Z " fill="white" transform="translate(420,93)"/>
<path d="M0 0 C2.31 0 4.62 0 7 0 C7.33 6.93 7.66 13.86 8 21 C9.32 21.33 10.64 21.66 12 22 C14.20900768 20.50922588 14.89040876 19.52840182 15.43237305 16.9152832 C15.45855713 16.13499756 15.48474121 15.35471191 15.51171875 14.55078125 C15.54716797 13.70322266 15.58261719 12.85566406 15.61914062 11.98242188 C15.65297852 10.66081055 15.65297852 10.66081055 15.6875 9.3125 C15.72166016 8.41982422 15.75582031 7.52714844 15.79101562 6.60742188 C15.87345648 4.40507329 15.94261551 2.20312062 16 0 C18.31 0 20.62 0 23 0 C23 9.24 23 18.48 23 28 C20.03 28 17.06 28 14 28 C12.7625 28.20625 11.525 28.4125 10.25 28.625 C6.71337586 29.03307202 5.06645244 28.75225854 2 27 C-0.26598448 23.60102327 -0.23742654 22.43680827 -0.1953125 18.45703125 C-0.18886719 17.38388672 -0.18242188 16.31074219 -0.17578125 15.20507812 C-0.15064453 13.52575195 -0.15064453 13.52575195 -0.125 11.8125 C-0.11597656 10.68134766 -0.10695313 9.55019531 -0.09765625 8.38476562 C-0.07406862 5.58963172 -0.041153 2.79492155 0 0 Z " fill="white" transform="translate(661,93)"/>
<path d="M0 0 C2.05938216 1.57885966 2.84571211 2.69142423 4 5 C4.08449628 6.7404417 4.10723024 8.48409722 4.09765625 10.2265625 C4.09443359 11.2578125 4.09121094 12.2890625 4.08789062 13.3515625 C4.07951172 14.43179688 4.07113281 15.51203125 4.0625 16.625 C4.05798828 17.71296875 4.05347656 18.8009375 4.04882812 19.921875 C4.03701776 22.61463789 4.02054778 25.30729188 4 28 C1.69 28 -0.62 28 -3 28 C-3.02505615 27.39937744 -3.0501123 26.79875488 -3.07592773 26.17993164 C-3.1915528 23.47388563 -3.31442936 20.76821717 -3.4375 18.0625 C-3.47681641 17.11697266 -3.51613281 16.17144531 -3.55664062 15.19726562 C-3.59853516 14.29814453 -3.64042969 13.39902344 -3.68359375 12.47265625 C-3.72025146 11.64000244 -3.75690918 10.80734863 -3.79467773 9.94946289 C-3.79367103 7.99661142 -3.79367103 7.99661142 -5 7 C-7.5 6.83333333 -7.5 6.83333333 -10 7 C-11.58403524 8.58403524 -11.21974935 10.2771638 -11.31640625 12.47265625 C-11.35830078 13.37177734 -11.40019531 14.27089844 -11.44335938 15.19726562 C-11.50233398 16.61555664 -11.50233398 16.61555664 -11.5625 18.0625 C-11.62727539 19.4865918 -11.62727539 19.4865918 -11.69335938 20.93945312 C-11.79979276 23.29281353 -11.90181008 25.64628354 -12 28 C-14.31 28 -16.62 28 -19 28 C-19 18.76 -19 9.52 -19 0 C-16 0 -13 0 -10 0 C-6.22941703 -1.25686099 -3.86146303 -0.82745636 0 0 Z " fill="white" transform="translate(575,93)"/>
<path d="M0 0 C2.73521414 2.25110545 3.88031327 4.02882766 4.31616211 7.56542969 C4.39409692 10.65726967 4.34819287 13.72131277 4.25 16.8125 C4.23195313 17.88693359 4.21390625 18.96136719 4.1953125 20.06835938 C4.14829392 22.71315465 4.0825916 25.35611589 4 28 C1.69 28 -0.62 28 -3 28 C-3.02505615 27.39937744 -3.0501123 26.79875488 -3.07592773 26.17993164 C-3.1915528 23.47388563 -3.31442936 20.76821717 -3.4375 18.0625 C-3.47681641 17.11697266 -3.51613281 16.17144531 -3.55664062 15.19726562 C-3.59853516 14.29814453 -3.64042969 13.39902344 -3.68359375 12.47265625 C-3.72025146 11.64000244 -3.75690918 10.80734863 -3.79467773 9.94946289 C-3.79367103 7.99661142 -3.79367103 7.99661142 -5 7 C-7.5 6.83333333 -7.5 6.83333333 -10 7 C-11.58403524 8.58403524 -11.21974935 10.2771638 -11.31640625 12.47265625 C-11.35830078 13.37177734 -11.40019531 14.27089844 -11.44335938 15.19726562 C-11.50233398 16.61555664 -11.50233398 16.61555664 -11.5625 18.0625 C-11.62727539 19.4865918 -11.62727539 19.4865918 -11.69335938 20.93945312 C-11.79979276 23.29281353 -11.90181008 25.64628354 -12 28 C-14.31 28 -16.62 28 -19 28 C-19 18.76 -19 9.52 -19 0 C-16 0 -13 0 -10 0 C-6.16652698 -1.27782434 -3.91272241 -0.96101954 0 0 Z " fill="white" transform="translate(931,93)"/>
<path d="M0 0 C5.0428125 -0.0928125 5.0428125 -0.0928125 10.1875 -0.1875 C11.76374146 -0.22846802 11.76374146 -0.22846802 13.37182617 -0.27026367 C22.25814307 -0.34950689 22.25814307 -0.34950689 26 3 C29.8396756 7.87765384 29.6100969 12.60462774 29.484375 18.6015625 C28.89018678 22.7704637 27.72892925 24.82991073 24.80078125 27.765625 C19.57789778 31.34573601 14.7973869 31.24941071 8.6875 31.125 C5.820625 31.08375 2.95375 31.0425 0 31 C0 20.77 0 10.54 0 0 Z M6 3 C6 11.25 6 19.5 6 28 C15.93994793 28.83319563 15.93994793 28.83319563 20.0625 26.4375 C23.54864123 22.05170942 24.23508665 17.78581706 23.875 12.3125 C23.43065064 9.20734436 23.06075397 8.08100529 21.125 5.5 C15.98702479 1.87319397 13.07981061 3 6 3 Z " fill="white" transform="translate(307,220)"/>
<path d="M0 0 C2.6875 2 2.6875 2 4 4 C1.9375 6.0625 1.9375 6.0625 -1 8 C-4.8125 7.75 -4.8125 7.75 -8 7 C-8 7.66 -8 8.32 -8 9 C-7.30132813 9.33773437 -6.60265625 9.67546875 -5.8828125 10.0234375 C-4.97273437 10.46945313 -4.06265625 10.91546875 -3.125 11.375 C-2.22007812 11.81585938 -1.31515625 12.25671875 -0.3828125 12.7109375 C2 14 2 14 4 16 C4.56537481 20.28069498 4.49286262 22.29150998 2 25.875 C-1.62498373 28.44269681 -4.62684111 29.29634959 -9 29 C-11.93489386 28.28404838 -14.23638722 27.30907974 -17 26 C-17.33 25.34 -17.66 24.68 -18 24 C-17.01 22.68 -16.02 21.36 -15 20 C-13.9790625 20.2165625 -13.9790625 20.2165625 -12.9375 20.4375 C-9.63726918 21.06945909 -6.32855574 21.54313941 -3 22 C-3.67864579 18.85933888 -3.67864579 18.85933888 -6.21484375 17.71875 C-7.11332031 17.3165625 -8.01179687 16.914375 -8.9375 16.5 C-13.78370979 14.32443532 -13.78370979 14.32443532 -16 11 C-16.59111649 7.11552021 -16.29788155 5.47250177 -14.1875 2.125 C-9.58378349 -0.94414434 -5.3870141 -0.93651168 0 0 Z " fill="white" transform="translate(600,93)"/>
<path d="M0 0 C-0.33 1.98 -0.66 3.96 -1 6 C-2.65 6 -4.3 6 -6 6 C-6.33 7.32 -6.66 8.64 -7 10 C-5.02 10 -3.04 10 -1 10 C-1 11.65 -1 13.3 -1 15 C-3.31 15 -5.62 15 -8 15 C-8 22.59 -8 30.18 -8 38 C-10.31 38 -12.62 38 -15 38 C-15 30.41 -15 22.82 -15 15 C-16.32 15 -17.64 15 -19 15 C-19 13.35 -19 11.7 -19 10 C-17.35 10 -15.7 10 -14 10 C-14.061875 8.906875 -14.12375 7.81375 -14.1875 6.6875 C-14 3 -14 3 -12.75 1.125 C-8.44649951 -1.64153603 -4.93329933 -0.85384027 0 0 Z " fill="white" transform="translate(793,83)"/>
<path d="M0 0 C8.25 0 16.5 0 25 0 C25 1.98 25 3.96 25 6 C22.03 6 19.06 6 16 6 C16 15.57 16 25.14 16 35 C13.69 35 11.38 35 9 35 C9 25.43 9 15.86 9 6 C6.03 6 3.06 6 0 6 C0 4.02 0 2.04 0 0 Z " fill="white" transform="translate(804,86)"/>
<path d="M0 0 C1.2065625 0.0309375 1.2065625 0.0309375 2.4375 0.0625 C2.4375 2.3725 2.4375 4.6825 2.4375 7.0625 C4.7475 7.0625 7.0575 7.0625 9.4375 7.0625 C9.4375 9.0425 9.4375 11.0225 9.4375 13.0625 C7.1275 13.0625 4.8175 13.0625 2.4375 13.0625 C2.4375 18.3425 2.4375 23.6225 2.4375 29.0625 C5.9025 28.5675 5.9025 28.5675 9.4375 28.0625 C9.81883299 30.0539056 10.15075582 32.05529077 10.4375 34.0625 C8.70530072 35.79469928 6.41723192 35.27541761 4.0625 35.3125 C3.08539062 35.33828125 2.10828125 35.3640625 1.1015625 35.390625 C-1.5625 35.0625 -1.5625 35.0625 -3.21069336 33.82006836 C-4.92557899 31.5904383 -4.91160571 30.40141701 -4.85546875 27.61328125 C-4.84580078 26.76572266 -4.83613281 25.91816406 -4.82617188 25.04492188 C-4.80103516 24.16384766 -4.77589844 23.28277344 -4.75 22.375 C-4.73646484 21.48232422 -4.72292969 20.58964844 -4.70898438 19.66992188 C-4.67364079 17.46683834 -4.62430493 15.26497418 -4.5625 13.0625 C-5.8825 13.0625 -7.2025 13.0625 -8.5625 13.0625 C-8.5625 11.4125 -8.5625 9.7625 -8.5625 8.0625 C-7.2425 7.7325 -5.9225 7.4025 -4.5625 7.0625 C-4.418125 6.093125 -4.27375 5.12375 -4.125 4.125 C-3.3825 0.0825 -3.3825 0.0825 0 0 Z " fill="white" transform="translate(695.5625,85.9375)"/>
<path d="M0 0 C1.98 0 3.96 0 6 0 C6 3.96 6 7.92 6 12 C6.80824219 11.13375 7.61648437 10.2675 8.44921875 9.375 C9.5279673 8.24934934 10.60743214 7.12438483 11.6875 6 C12.21794922 5.42765625 12.74839844 4.8553125 13.29492188 4.265625 C17.35216114 0.08393054 17.35216114 0.08393054 20.89453125 -0.375 C21.58933594 -0.25125 22.28414062 -0.1275 23 0 C23 0.66 23 1.32 23 2 C21.390625 3.5859375 21.390625 3.5859375 19.25 5.375 C16.3756268 7.81617866 13.61456008 10.27649992 11 13 C12.26462367 17.63695346 14.87833342 20.01269841 18.24609375 23.21875 C20.60065569 25.61002003 22.25682174 28.14118765 24 31 C18.02424619 31.77587815 18.02424619 31.77587815 15.39111328 29.78125 C13.84375069 28.08338561 12.44257479 26.33628208 11.0625 24.5 C10.56943359 23.87996094 10.07636719 23.25992188 9.56835938 22.62109375 C8.35977384 21.09569453 7.17720836 19.54974265 6 18 C6 22.29 6 26.58 6 31 C4.02 31 2.04 31 0 31 C0 20.77 0 10.54 0 0 Z " fill="white" transform="translate(221,220)"/>
<path d="M0 0 C0.99 0.66 1.98 1.32 3 2 C2.75 3.875 2.75 3.875 2 6 C-0.0625 7.25 -0.0625 7.25 -2 8 C-2.33 7.67 -2.66 7.34 -3 7 C-4.99958364 6.95919217 -7.00045254 6.95745644 -9 7 C-10.24377393 9.48754786 -10.13306235 11.22655301 -10.125 14 C-10.12757813 14.886875 -10.13015625 15.77375 -10.1328125 16.6875 C-10.15127902 19.02676966 -10.15127902 19.02676966 -9 21 C-8.0925 21 -7.185 21 -6.25 21 C-3.83333333 21 -1.41666667 21 1 21 C3 23 3 23 3 26 C-1.84853175 28.57900625 -5.4312463 29.57480861 -10.9140625 28.6953125 C-14.66379342 27.44540219 -16.0604723 25.33356323 -18 22 C-19.44683597 16.11620038 -19.3064775 10.66919236 -17 5 C-12.36852023 -0.81903868 -7.17157386 -1.06954398 0 0 Z " fill="white" transform="translate(876,93)"/>
<path d="M0 0 C1.98 0 3.96 0 6 0 C6.33 3.96 6.66 7.92 7 12 C8.258125 10.7625 9.51625 9.525 10.8125 8.25 C11.52019531 7.55390625 12.22789062 6.8578125 12.95703125 6.140625 C15.03390574 4.07480113 15.03390574 4.07480113 16.5625 1.75 C17.036875 1.1725 17.51125 0.595 18 0 C21.1875 -0.25 21.1875 -0.25 24 0 C20.60271539 4.15612825 17.27000859 7.70599337 13 11 C12.67 11.66 12.34 12.32 12 13 C11.34 13 10.68 13 10 13 C11.39229003 14.73202093 12.78900556 16.46048484 14.1875 18.1875 C14.96480469 19.15042969 15.74210937 20.11335938 16.54296875 21.10546875 C18.96999907 24.05532131 18.96999907 24.05532131 21.80078125 26.73828125 C24 29 24 29 24 31 C21.33203125 31.3359375 21.33203125 31.3359375 18 31 C15.26171875 28.6640625 15.26171875 28.6640625 12.6875 25.625 C11.82511719 24.62726563 10.96273438 23.62953125 10.07421875 22.6015625 C8 20 8 20 7 18 C6.67 22.29 6.34 26.58 6 31 C4.02 31 2.04 31 0 31 C0 20.77 0 10.54 0 0 Z " fill="white" transform="translate(248,220)"/>
<path d="M0 0 C1.65 0 3.3 0 5 0 C5 2.31 5 4.62 5 7 C7.64 7 10.28 7 13 7 C13 8.98 13 10.96 13 13 C10.36 13 7.72 13 5 13 C5.33 18.28 5.66 23.56 6 29 C9.465 28.505 9.465 28.505 13 28 C13.38133299 29.9914056 13.71325582 31.99279077 14 34 C12.26780072 35.73219928 9.97973192 35.21291761 7.625 35.25 C6.64789062 35.27578125 5.67078125 35.3015625 4.6640625 35.328125 C2 35 2 35 0.35180664 33.75756836 C-1.36307899 31.5279383 -1.34910571 30.33891701 -1.29296875 27.55078125 C-1.28330078 26.70322266 -1.27363281 25.85566406 -1.26367188 24.98242188 C-1.23853516 24.10134766 -1.21339844 23.22027344 -1.1875 22.3125 C-1.17396484 21.41982422 -1.16042969 20.52714844 -1.14648438 19.60742188 C-1.11114079 17.40433834 -1.06180493 15.20247418 -1 13 C-2.32 13 -3.64 13 -5 13 C-5 11.35 -5 9.7 -5 8 C-3.68 7.67 -2.36 7.34 -1 7 C-0.67 4.69 -0.34 2.38 0 0 Z " fill="white" transform="translate(644,86)"/>
<path d="M0 0 C1.65 0 3.3 0 5 0 C5 2.31 5 4.62 5 7 C7.31 7 9.62 7 12 7 C12 8.98 12 10.96 12 13 C9.69 13 7.38 13 5 13 C5.33 18.28 5.66 23.56 6 29 C9.465 28.505 9.465 28.505 13 28 C13.38133299 29.9914056 13.71325582 31.99279077 14 34 C12.26780072 35.73219928 9.97973192 35.21291761 7.625 35.25 C6.64789062 35.27578125 5.67078125 35.3015625 4.6640625 35.328125 C2 35 2 35 0.35180664 33.75756836 C-1.36307899 31.5279383 -1.34910571 30.33891701 -1.29296875 27.55078125 C-1.28330078 26.70322266 -1.27363281 25.85566406 -1.26367188 24.98242188 C-1.23853516 24.10134766 -1.21339844 23.22027344 -1.1875 22.3125 C-1.17396484 21.41982422 -1.16042969 20.52714844 -1.14648438 19.60742188 C-1.11114079 17.40433834 -1.06180493 15.20247418 -1 13 C-2.32 13 -3.64 13 -5 13 C-5 11.35 -5 9.7 -5 8 C-3.68 7.67 -2.36 7.34 -1 7 C-0.67 4.69 -0.34 2.38 0 0 Z " fill="white" transform="translate(611,86)"/>
<path d="M0 0 C0.99 0 1.98 0 3 0 C4.691997 4.0745662 6.38263567 8.14969249 8.07202148 12.2253418 C8.64684406 13.61156413 9.22203659 14.99763311 9.79760742 16.38354492 C10.62516182 18.37638732 11.45138133 20.3697786 12.27734375 22.36328125 C13.02359009 24.16212769 13.02359009 24.16212769 13.78491211 25.99731445 C14.58495549 27.97435555 15.32555498 29.97666493 16 32 C13.69 32 11.38 32 9 32 C7.68 28.37 6.36 24.74 5 21 C1.7 21 -1.6 21 -5 21 C-5.20496094 21.71027344 -5.40992188 22.42054688 -5.62109375 23.15234375 C-5.89050781 24.07144531 -6.15992188 24.99054688 -6.4375 25.9375 C-6.70433594 26.85402344 -6.97117188 27.77054688 -7.24609375 28.71484375 C-8 31 -8 31 -9 32 C-10.66617115 32.04063832 -12.33388095 32.042721 -14 32 C-12.4172927 28.35389459 -10.83371838 24.70816634 -9.25 21.0625 C-8.58484375 19.53012695 -8.58484375 19.53012695 -7.90625 17.96679688 C-5.29857723 11.96531469 -2.67019261 5.97394223 0 0 Z M0 9 C-2.2013866 12.80427492 -2.2013866 12.80427492 -3 17 C-0.69 17 1.62 17 4 17 C3.01 14.36 2.02 11.72 1 9 C0.67 9 0.34 9 0 9 Z " fill="white" transform="translate(148,219)"/>
<path d="M0 0 C3 1 3 1 4.42626953 3.63623047 C4.90692871 4.78494629 5.38758789 5.93366211 5.8828125 7.1171875 C6.14254852 7.73014679 6.40228455 8.34310608 6.66989136 8.97463989 C7.49852272 10.93729295 8.31172449 12.90594135 9.125 14.875 C9.68001719 16.19441988 10.23599562 17.51343585 10.79296875 18.83203125 C14.73018385 28.19055155 14.73018385 28.19055155 16 32 C13.69 32 11.38 32 9 32 C8.49384702 30.73160474 7.99530901 29.46016898 7.5 28.1875 C7.2215625 27.47980469 6.943125 26.77210938 6.65625 26.04296875 C6 24 6 24 6 21 C2.7 21 -0.6 21 -4 21 C-5.65 24.63 -7.3 28.26 -9 32 C-10.65 32 -12.3 32 -14 32 C-9.63170947 21.20000533 -4.81392716 10.60669142 0 0 Z M0 9 C-2.2013866 12.80427492 -2.2013866 12.80427492 -3 17 C-0.69 17 1.62 17 4 17 C3.01 14.36 2.02 11.72 1 9 C0.67 9 0.34 9 0 9 Z " fill="white" transform="translate(288,219)"/>
<path d="M0 0 C0.66 0 1.32 0 2 0 C3.6107158 3.64297377 5.21235155 7.28987369 6.8125 10.9375 C7.49022461 12.46987305 7.49022461 12.46987305 8.18164062 14.03320312 C10.77186077 19.95100536 13.06529709 25.83594654 15 32 C13.02 32 11.04 32 9 32 C8.32880451 30.5437455 7.66318193 29.08492133 7 27.625 C6.62875 26.81289062 6.2575 26.00078125 5.875 25.1640625 C5 23 5 23 5 21 C1.37 21 -2.26 21 -6 21 C-6.33 22.65 -6.66 24.3 -7 26 C-7.64389782 28.00744615 -8.30562253 30.00945124 -9 32 C-10.65 32 -12.3 32 -14 32 C-11.78620166 24.90411659 -8.98755765 18.2453699 -5.875 11.5 C-5.41996094 10.4996875 -4.96492187 9.499375 -4.49609375 8.46875 C-1.14074248 1.14074248 -1.14074248 1.14074248 0 0 Z M-1 9 C-2.485 12.96 -2.485 12.96 -4 17 C-1.69 17 0.62 17 3 17 C1.73025028 12.58477891 1.73025028 12.58477891 -1 9 Z " fill="white" transform="translate(202,219)"/>
<path d="M0 0 C3.83625 -0.12375 3.83625 -0.12375 7.75 -0.25 C8.54889648 -0.28641602 9.34779297 -0.32283203 10.17089844 -0.36035156 C13.69815094 -0.41543712 15.61623386 -0.29163786 18.45703125 1.8671875 C20.30415127 4.42042176 20.9247373 5.83896672 21 9 C19.64391017 13.23778071 18.59075417 14.66561085 14.6875 16.875 C11 18 11 18 5 18 C5.33 22.29 5.66 26.58 6 31 C4.02 31 2.04 31 0 31 C0 20.77 0 10.54 0 0 Z M5 3 C5 6.96 5 10.92 5 15 C9.68612994 14.62385875 9.68612994 14.62385875 13.9375 12.8125 C15.51045744 10.12921967 15.32378803 8.04360748 15 5 C13.23863645 2.81668311 13.23863645 2.81668311 11.0546875 2.8046875 C8.02734375 2.90234375 8.02734375 2.90234375 5 3 Z " fill="white" transform="translate(116,220)"/>
<path d="M0 0 C2.31 0 4.62 0 7 0 C7 10.56 7 21.12 7 32 C8.32 32 9.64 32 11 32 C11 33.98 11 35.96 11 38 C9.54257537 38.08096803 8.08387193 38.13917774 6.625 38.1875 C5.81289062 38.22230469 5.00078125 38.25710937 4.1640625 38.29296875 C3.44992187 38.19628906 2.73578125 38.09960938 2 38 C-0.49336211 34.25995683 -0.25481228 31.37438391 -0.1953125 27.05078125 C-0.1924826 26.27816452 -0.18965271 25.50554779 -0.18673706 24.70951843 C-0.17554878 22.24368757 -0.15044703 19.77822094 -0.125 17.3125 C-0.11496843 15.63997921 -0.10584289 13.96745272 -0.09765625 12.29492188 C-0.07561392 8.19647441 -0.04109363 4.09829894 0 0 Z " fill="white" transform="translate(1131,83)"/>
<path d="M0 0 C2.31 0 4.62 0 7 0 C7.33 10.23 7.66 20.46 8 31 C8.99 31.33 9.98 31.66 11 32 C11 33.98 11 35.96 11 38 C5.04296875 38.390625 5.04296875 38.390625 3 38 C0.38485301 35.50545445 0.00634947 34.06665355 -0.34057617 30.42480469 C-0.34010403 29.00707272 -0.32332145 27.58928209 -0.29296875 26.171875 C-0.28872391 25.42286926 -0.28447906 24.67386353 -0.28010559 23.90216064 C-0.26335746 21.51773625 -0.22571397 19.13416747 -0.1875 16.75 C-0.17244809 15.13022057 -0.15876057 13.51042785 -0.14648438 11.890625 C-0.1134668 7.92675534 -0.06171246 3.96352257 0 0 Z " fill="white" transform="translate(969,83)"/>
<path d="M0 0 C7.92 0 15.84 0 24 0 C24 1.32 24 2.64 24 4 C21.03 4 18.06 4 15 4 C15 12.91 15 21.82 15 31 C13.02 31 11.04 31 9 31 C9 22.09 9 13.18 9 4 C6.03 4 3.06 4 0 4 C0 2.68 0 1.36 0 0 Z " fill="white" transform="translate(74,220)"/>
<path d="M0 0 C2.31 0 4.62 0 7 0 C7 11.55 7 23.1 7 35 C4.69 35 2.38 35 0 35 C0 23.45 0 11.9 0 0 Z " fill="white" transform="translate(542,86)"/>
<path d="M0 0 C2.31 0 4.62 0 7 0 C7 11.55 7 23.1 7 35 C4.69 35 2.38 35 0 35 C0 23.45 0 11.9 0 0 Z " fill="white" transform="translate(387,86)"/>
<path d="M0 0 C2.31 0 4.62 0 7 0 C7 9.24 7 18.48 7 28 C4.69 28 2.38 28 0 28 C0 18.76 0 9.52 0 0 Z " fill="white" transform="translate(628,93)"/>
<path d="M0 0 C2.31 0 4.62 0 7 0 C7 9.24 7 18.48 7 28 C4.69 28 2.38 28 0 28 C0 18.76 0 9.52 0 0 Z " fill="white" transform="translate(459,93)"/>
<path d="M0 0 C1.65 0 3.3 0 5 0 C5 9.24 5 18.48 5 28 C8.96 27.67 12.92 27.34 17 27 C17 28.32 17 29.64 17 31 C11.39 31 5.78 31 0 31 C0 20.77 0 10.54 0 0 Z " fill="white" transform="translate(168,220)"/>
<path d="M0 0 C1.98 0 3.96 0 6 0 C6 10.23 6 20.46 6 31 C4.02 31 2.04 31 0 31 C0 20.77 0 10.54 0 0 Z " fill="white" transform="translate(52,220)"/>
<path d="M0 0 C1.98 0 3.96 0 6 0 C6 10.23 6 20.46 6 31 C4.02 31 2.04 31 0 31 C0 20.77 0 10.54 0 0 Z " fill="white" transform="translate(64,220)"/>
<path d="M0 0 C2.5625 0.1875 2.5625 0.1875 4.5625 2.1875 C4.00694444 6.74305556 4.00694444 6.74305556 2.5625 8.1875 C0.125 8.375 0.125 8.375 -2.4375 8.1875 C-3.0975 7.5275 -3.7575 6.8675 -4.4375 6.1875 C-3.71780303 0.28598485 -3.71780303 0.28598485 0 0 Z " fill="white" transform="translate(769.4375,133.8125)"/>
<path d="M0 0 C2.5 -0.3125 2.5 -0.3125 5 0 C5.66 0.66 6.32 1.32 7 2 C6.44444444 6.55555556 6.44444444 6.55555556 5 8 C3.33382885 8.04063832 1.66611905 8.042721 0 8 C-1.125 5.6875 -1.125 5.6875 -2 3 C-1.34 2.01 -0.68 1.02 0 0 Z " fill="white" transform="translate(460,82)"/>
<path d="M0 0 C2.375 -0.125 2.375 -0.125 5 0 C5.66 0.66 6.32 1.32 7 2 C6.44444444 6.55555556 6.44444444 6.55555556 5 8 C3.33382885 8.04063832 1.66611905 8.042721 0 8 C-1.125 6.25 -1.125 6.25 -2 4 C-1.125 1.75 -1.125 1.75 0 0 Z " fill="white" transform="translate(629,82)"/>
</svg>
